<?xml version="1.0" encoding="UTF-8"?><svg id="Layer_1" xmlns="http://www.w3.org/2000/svg" width="428" height="154" viewBox="0 0 428 154"><defs><style>.cls-1{fill:#000;stroke-width:0px;}.cls-2{fill:#ff910a;stroke:#000;stroke-miterlimit:10;}</style></defs><rect class="cls-2" x="9.5" y="11.5" width="403" height="129" rx="12" ry="12"/><path class="cls-1" d="M29.72,92.46c0-1.28.3-2.54.91-3.77.61-1.23,1.34-2.43,2.2-3.6.86-1.17,1.78-2.29,2.75-3.35.97-1.06,1.8-2.07,2.5-3.02,1.14-1.5,1.99-3,2.56-4.48.57-1.48.98-2.94,1.24-4.37.26-1.43.41-2.81.47-4.15.05-1.34.12-2.61.19-3.82.07-1.21.21-2.33.41-3.35.2-1.03.6-1.94,1.18-2.75.66-.92,1.44-1.69,2.34-2.31.9-.62,1.87-1.14,2.92-1.54,1.04-.4,2.13-.7,3.24-.88,1.12-.18,2.23-.28,3.33-.28,1.61,0,3.11.22,4.48.66s2.58,1.3,3.6,2.58c.51.62.96,1.5,1.35,2.64.38,1.14.77,2.35,1.16,3.63.38,1.28.79,2.57,1.21,3.85.42,1.28.89,2.38,1.4,3.3.77,1.32,1.59,2.5,2.47,3.55.88,1.04,1.76,2.05,2.64,3.02.88.97,1.73,1.94,2.56,2.92.82.97,1.55,2.02,2.17,3.13.62,1.12,1.13,2.36,1.51,3.71.38,1.36.58,2.92.58,4.68,0,1.58-.2,3.04-.61,4.4-.4,1.36-1.02,2.51-1.84,3.46-.83.95-1.87,1.71-3.13,2.26-1.27.55-2.74.82-4.43.82-2.13,0-3.91-.39-5.33-1.18-1.43-.79-2.6-1.77-3.52-2.94-.92-1.17-1.66-2.44-2.23-3.79-.57-1.36-1.08-2.62-1.54-3.79-.46-1.17-.92-2.15-1.38-2.94-.46-.79-1.04-1.18-1.73-1.18-.15,0-.3.02-.47.06-.17.04-.3.11-.41.22-.99.73-1.67,1.71-2.04,2.92-.37,1.21-.62,2.5-.77,3.88-.15,1.38-.29,2.77-.44,4.18s-.53,2.68-1.15,3.79c-.62,1.12-1.58,2.04-2.86,2.75-1.28.71-3.12,1.07-5.5,1.07-3.78,0-6.72-.82-8.83-2.47-2.11-1.65-3.16-4.14-3.16-7.48ZM51.39,71.28c0,.55.14,1.03.41,1.43.28.4.63.72,1.07.96.44.24.92.42,1.43.55.51.13,1.01.19,1.49.19.44,0,.93-.06,1.46-.17.53-.11,1.03-.29,1.48-.55.46-.26.83-.57,1.13-.94.29-.37.44-.82.44-1.38,0-.51-.12-1.04-.36-1.59-.24-.55-.57-1.06-.99-1.54-.42-.48-.92-.86-1.49-1.15-.57-.29-1.17-.44-1.79-.44-.66,0-1.25.15-1.76.44s-.96.67-1.35,1.13c-.38.46-.68.95-.88,1.48-.2.53-.3,1.05-.3,1.57Z"/><path class="cls-1" d="M90.27,50.82c1.58,0,2.81.31,3.71.94.9.62,1.57,1.71,2.01,3.25.15.51.38,1.28.71,2.31.33,1.03.73,2.17,1.21,3.44.48,1.26,1,2.57,1.57,3.9.57,1.34,1.16,2.56,1.79,3.66.62,1.1,1.26,2,1.9,2.69.64.7,1.27,1.04,1.9,1.04.44,0,.82-.23,1.13-.69.31-.46.55-1,.71-1.62.17-.62.28-1.25.36-1.87.07-.62.11-1.08.11-1.38,0-.99-.11-1.97-.33-2.94-.22-.97-.46-1.93-.71-2.89-.26-.95-.5-1.9-.71-2.83s-.33-1.9-.33-2.89c0-2.2.62-3.82,1.87-4.87,1.25-1.04,2.93-1.57,5.06-1.57.77,0,1.56.17,2.36.5.81.33,1.53.79,2.17,1.38.64.59,1.16,1.25,1.57,1.98.4.73.6,1.52.6,2.37,0,2.53-.15,5.02-.44,7.48-.29,2.46-.44,4.95-.44,7.48,0,1.61.18,3.19.55,4.73s.78,3.08,1.24,4.62c.46,1.54.87,3.07,1.24,4.59.37,1.52.55,3.09.55,4.7s-.17,3.05-.5,4.43-.84,2.57-1.54,3.58c-.7,1.01-1.59,1.8-2.7,2.36-1.1.57-2.44.85-4.01.85s-2.89-.33-4.04-.99c-1.16-.66-2.13-1.52-2.92-2.58-.79-1.06-1.38-2.27-1.79-3.63-.4-1.36-.61-2.73-.61-4.12,0-.95-.18-2.15-.55-3.57-.37-1.43-.83-2.83-1.4-4.21-.57-1.38-1.21-2.55-1.93-3.52-.71-.97-1.4-1.46-2.06-1.46-.33,0-.59.1-.77.3-.18.2-.33.46-.44.77-.11.31-.17.63-.19.96-.02.33-.03.61-.03.83,0,.99.18,1.96.55,2.92.37.95.76,1.92,1.18,2.92.42.99.82,2.04,1.18,3.16.37,1.12.55,2.36.55,3.71s-.21,2.57-.63,3.74c-.42,1.17-1.02,2.2-1.79,3.08-.77.88-1.71,1.57-2.83,2.06-1.12.5-2.38.74-3.77.74-1.32,0-2.54-.26-3.66-.77-1.12-.51-2.09-1.2-2.91-2.06-.83-.86-1.48-1.87-1.95-3.02-.48-1.16-.71-2.39-.71-3.71,0-2.2.2-4.36.61-6.49.4-2.13.83-4.24,1.29-6.35.46-2.11.89-4.23,1.29-6.35.4-2.13.61-4.27.61-6.44,0-1.65-.17-3.26-.52-4.84-.35-1.58-.52-3.02-.52-4.35,0-1.8.61-3.15,1.84-4.07,1.23-.92,2.67-1.38,4.32-1.38Z"/><path class="cls-1" d="M133.34,49.17c2.6,0,4.64.56,6.11,1.68,1.46,1.12,2.2,2.67,2.2,4.65,0,.99-.15,2.11-.44,3.36-.29,1.25-.61,2.58-.94,3.99-.33,1.41-.64,2.89-.94,4.43-.29,1.54-.44,3.12-.44,4.73,0,1.76.3,3.37.91,4.84.6,1.47,1.27,2.92,2.01,4.34.73,1.43,1.4,2.9,2.01,4.4.6,1.5.92,3.17.96,5v.27c0,8.62-3.7,12.92-11.11,12.92-3.26,0-5.84-.82-7.73-2.45-1.89-1.63-2.89-3.9-3-6.79v-.44c0-1.61.25-3.08.74-4.4.49-1.32,1.03-2.67,1.59-4.04.57-1.38,1.1-2.85,1.59-4.43.5-1.58.74-3.43.74-5.56,0-1.94-.2-3.66-.6-5.14-.4-1.49-.85-2.87-1.35-4.15-.5-1.28-.95-2.56-1.38-3.82-.42-1.27-.63-2.67-.63-4.21,0-2.93.83-5.2,2.5-6.79,1.67-1.6,4.06-2.39,7.18-2.39Z"/><path class="cls-1" d="M160.07,50.38c1.43,0,2.62.38,3.58,1.13.95.75,1.75,1.69,2.39,2.81.64,1.12,1.18,2.33,1.62,3.63.44,1.3.85,2.51,1.24,3.63.39,1.12.78,2.05,1.18,2.81.4.75.92,1.13,1.54,1.13.48,0,.94-.37,1.38-1.1.44-.73.9-1.66,1.38-2.78.48-1.12,1.01-2.33,1.6-3.63.59-1.3,1.27-2.51,2.06-3.63.79-1.12,1.71-2.04,2.75-2.78,1.04-.73,2.28-1.1,3.71-1.1s2.55.27,3.47.8c.92.53,1.63,1.29,2.14,2.28.51.99.87,2.21,1.07,3.66.2,1.45.3,3.09.3,4.92,0,1.25.25,2.72.74,4.43.5,1.71,1.04,3.55,1.62,5.53.59,1.98,1.13,4.07,1.62,6.27.49,2.2.74,4.42.74,6.65,0,3.01-.26,5.52-.77,7.54-.51,2.02-1.22,3.64-2.12,4.87s-1.96,2.1-3.19,2.61c-1.23.51-2.58.77-4.04.77s-2.89-.26-4.15-.77c-1.26-.51-2.35-1.23-3.24-2.15-.9-.92-1.6-2.02-2.09-3.3-.5-1.28-.74-2.71-.74-4.29,0-2.13.18-3.89.55-5.28.37-1.39.78-2.65,1.24-3.77.46-1.12.87-2.21,1.24-3.27.37-1.06.55-2.35.55-3.85,0-.84-.14-1.5-.41-1.98-.28-.48-.63-.71-1.07-.71-.4,0-.74.31-1.02.94-.27.62-.52,1.4-.74,2.34s-.44,1.95-.66,3.05c-.22,1.1-.5,2.12-.85,3.05-.35.94-.79,1.71-1.32,2.34-.53.62-1.2.94-2.01.94s-1.49-.31-2.04-.94c-.55-.62-1.03-1.4-1.43-2.34-.4-.94-.74-1.95-1.02-3.05-.27-1.1-.53-2.12-.77-3.05s-.47-1.71-.69-2.34c-.22-.62-.48-.94-.77-.94-.37,0-.67.17-.91.5s-.42.73-.55,1.21c-.13.48-.21.99-.25,1.54-.04.55-.05,1.03-.05,1.43,0,1.47.26,2.8.77,3.99.51,1.19,1.09,2.36,1.73,3.49.64,1.14,1.22,2.28,1.73,3.44.51,1.15.77,2.45.77,3.88s-.18,2.81-.55,4.15c-.37,1.34-1.02,2.51-1.95,3.52-.94,1.01-2.21,1.82-3.82,2.45-1.61.62-3.65.94-6.11.94-1.58,0-2.94-.37-4.1-1.1-1.15-.73-2.09-1.65-2.8-2.75-.71-1.1-1.25-2.29-1.59-3.57-.35-1.28-.52-2.49-.52-3.63,0-2.68.21-5.25.63-7.73.42-2.48.89-4.96,1.4-7.45.51-2.49.98-5.05,1.4-7.67.42-2.62.63-5.42.63-8.39,0-1.32.21-2.54.63-3.66.42-1.12,1.04-2.1,1.84-2.94.81-.84,1.81-1.5,3-1.98,1.19-.48,2.56-.71,4.1-.71Z"/><path class="cls-1" d="M197.41,92.46c0-1.28.3-2.54.91-3.77.6-1.23,1.34-2.43,2.2-3.6.86-1.17,1.78-2.29,2.75-3.35.97-1.06,1.8-2.07,2.5-3.02,1.14-1.5,1.99-3,2.56-4.48.57-1.48.98-2.94,1.24-4.37.26-1.43.41-2.81.47-4.15.05-1.34.12-2.61.19-3.82s.21-2.33.41-3.35c.2-1.03.6-1.94,1.18-2.75.66-.92,1.44-1.69,2.34-2.31.9-.62,1.87-1.14,2.91-1.54,1.04-.4,2.13-.7,3.25-.88,1.12-.18,2.23-.28,3.33-.28,1.61,0,3.11.22,4.48.66s2.58,1.3,3.6,2.58c.51.62.96,1.5,1.35,2.64.38,1.14.77,2.35,1.15,3.63.38,1.28.79,2.57,1.21,3.85.42,1.28.89,2.38,1.4,3.3.77,1.32,1.59,2.5,2.47,3.55.88,1.04,1.76,2.05,2.64,3.02.88.97,1.73,1.94,2.56,2.92.82.97,1.55,2.02,2.17,3.13.62,1.12,1.13,2.36,1.51,3.71.38,1.36.58,2.92.58,4.68,0,1.58-.2,3.04-.6,4.4-.4,1.36-1.02,2.51-1.84,3.46-.82.95-1.87,1.71-3.13,2.26-1.27.55-2.74.82-4.43.82-2.13,0-3.9-.39-5.33-1.18-1.43-.79-2.6-1.77-3.52-2.94-.92-1.17-1.66-2.44-2.23-3.79-.57-1.36-1.08-2.62-1.54-3.79-.46-1.17-.92-2.15-1.38-2.94-.46-.79-1.04-1.18-1.73-1.18-.15,0-.3.02-.47.06-.16.04-.3.11-.41.22-.99.73-1.67,1.71-2.04,2.92-.37,1.21-.62,2.5-.77,3.88s-.29,2.77-.44,4.18-.53,2.68-1.15,3.79c-.62,1.12-1.58,2.04-2.86,2.75-1.29.71-3.12,1.07-5.5,1.07-3.78,0-6.72-.82-8.83-2.47-2.11-1.65-3.16-4.14-3.16-7.48ZM219.08,71.28c0,.55.14,1.03.41,1.43.28.4.63.72,1.07.96.44.24.92.42,1.43.55.51.13,1.01.19,1.49.19.44,0,.93-.06,1.46-.17.53-.11,1.03-.29,1.48-.55.46-.26.83-.57,1.13-.94.29-.37.44-.82.44-1.38,0-.51-.12-1.04-.36-1.59-.24-.55-.57-1.06-.99-1.54-.42-.48-.92-.86-1.48-1.15-.57-.29-1.17-.44-1.79-.44-.66,0-1.25.15-1.76.44s-.96.67-1.35,1.13c-.38.46-.68.95-.88,1.48-.2.53-.3,1.05-.3,1.57Z"/><path class="cls-1" d="M264.57,49.61c1.06,0,2.25.02,3.55.06,1.3.04,2.61.12,3.93.25,1.32.13,2.6.34,3.85.63,1.25.29,2.37.7,3.36,1.21,1.21.66,2.08,1.4,2.61,2.23.53.82.8,1.93.8,3.33,0,1.58-.3,2.88-.91,3.9-.61,1.03-1.77,1.54-3.49,1.54-.81,0-1.51-.11-2.12-.33-.6-.22-1.15-.47-1.65-.74-.5-.27-.97-.52-1.43-.74-.46-.22-.95-.33-1.46-.33-.44,0-.8.16-1.07.47-.28.31-.49.7-.66,1.16-.16.46-.28.96-.33,1.51-.05.55-.08,1.06-.08,1.54,0,2.2.35,4.34,1.04,6.41.7,2.07,1.47,4.14,2.31,6.21.84,2.07,1.61,4.14,2.31,6.22.7,2.07,1.04,4.19,1.04,6.35,0,1.76-.35,3.3-1.04,4.62-.7,1.32-1.62,2.42-2.78,3.3-1.15.88-2.47,1.53-3.96,1.95-1.48.42-3.02.63-4.59.63s-3.12-.21-4.62-.63c-1.5-.42-2.84-1.07-4.02-1.95-1.17-.88-2.12-1.98-2.83-3.3-.71-1.32-1.09-2.86-1.13-4.62v-.22c0-2.16.34-4.27,1.02-6.33.68-2.05,1.43-4.11,2.25-6.16.83-2.05,1.58-4.12,2.26-6.19.68-2.07,1.02-4.19,1.02-6.35,0-.62,0-1.23.03-1.81.02-.59-.03-1.12-.14-1.6-.11-.48-.34-.85-.69-1.13-.35-.27-.89-.41-1.62-.41-.59,0-1.14.11-1.65.33s-1.04.47-1.57.74c-.53.27-1.07.52-1.62.74-.55.22-1.16.33-1.81.33-1.54,0-2.75-.43-3.63-1.29-.88-.86-1.32-2.1-1.32-3.71,0-1.39.39-2.55,1.18-3.46.79-.92,1.79-1.66,3.02-2.23,1.23-.57,2.62-1,4.18-1.29,1.56-.29,3.11-.5,4.65-.63,1.54-.13,3.01-.19,4.4-.19h3.41Z"/><path class="cls-1" d="M293.94,49.17c2.6,0,4.64.56,6.11,1.68,1.46,1.12,2.2,2.67,2.2,4.65,0,.99-.15,2.11-.44,3.36-.29,1.25-.61,2.58-.94,3.99-.33,1.41-.64,2.89-.94,4.43-.29,1.54-.44,3.12-.44,4.73,0,1.76.3,3.37.91,4.84.6,1.47,1.27,2.92,2.01,4.34.73,1.43,1.4,2.9,2.01,4.4.61,1.5.93,3.17.96,5v.27c0,8.62-3.7,12.92-11.11,12.92-3.26,0-5.84-.82-7.73-2.45-1.89-1.63-2.89-3.9-3-6.79v-.44c0-1.61.25-3.08.74-4.4.49-1.32,1.03-2.67,1.59-4.04s1.1-2.85,1.6-4.43c.5-1.58.74-3.43.74-5.56,0-1.94-.2-3.66-.6-5.14-.4-1.49-.85-2.87-1.35-4.15-.5-1.28-.96-2.56-1.38-3.82-.42-1.27-.63-2.67-.63-4.21,0-2.93.83-5.2,2.5-6.79,1.67-1.6,4.06-2.39,7.18-2.39Z"/><path class="cls-1" d="M327.43,49.61c2.02,0,3.91.38,5.69,1.13,1.78.75,3.4,1.77,4.87,3.05,1.46,1.28,2.77,2.8,3.9,4.54,1.14,1.74,2.1,3.62,2.89,5.64.79,2.02,1.39,4.11,1.82,6.27.42,2.16.63,4.31.63,6.44,0,3.15-.49,6.17-1.46,9.05-.97,2.88-2.37,5.41-4.18,7.59-1.81,2.18-4.03,3.91-6.65,5.2-2.62,1.28-5.6,1.92-8.94,1.92-2.86,0-5.44-.54-7.73-1.62s-4.23-2.6-5.83-4.56c-1.59-1.96-2.82-4.29-3.68-6.98-.86-2.69-1.29-5.64-1.29-8.83,0-3.81.49-7.45,1.48-10.92.99-3.46,2.38-6.53,4.15-9.19,1.78-2.66,3.89-4.78,6.33-6.35,2.44-1.58,5.11-2.37,8-2.37ZM321.6,71.89c0,1.39.54,2.55,1.62,3.47,1.08.92,2.48,1.38,4.21,1.38,1.54,0,2.76-.41,3.66-1.24.9-.82,1.35-1.93,1.35-3.33,0-.77-.14-1.48-.41-2.15-.27-.66-.65-1.24-1.13-1.73-.48-.49-1.04-.88-1.68-1.15s-1.35-.41-2.12-.41-1.48.14-2.14.41-1.24.64-1.73,1.1c-.5.46-.89,1-1.18,1.62-.29.62-.44,1.3-.44,2.03Z"/><path class="cls-1" d="M358.12,50.82c1.58,0,2.81.31,3.71.94.9.62,1.57,1.71,2.01,3.25.15.51.39,1.28.72,2.31.33,1.03.73,2.17,1.21,3.44.48,1.26,1,2.57,1.57,3.9.57,1.34,1.16,2.56,1.79,3.66.62,1.1,1.26,2,1.9,2.69.64.7,1.27,1.04,1.9,1.04.44,0,.81-.23,1.13-.69.31-.46.55-1,.71-1.62.17-.62.28-1.25.36-1.87.07-.62.11-1.08.11-1.38,0-.99-.11-1.97-.33-2.94-.22-.97-.46-1.93-.71-2.89-.26-.95-.5-1.9-.72-2.83-.22-.94-.33-1.9-.33-2.89,0-2.2.62-3.82,1.87-4.87,1.25-1.04,2.93-1.57,5.06-1.57.77,0,1.56.17,2.37.5.8.33,1.53.79,2.17,1.38.64.59,1.16,1.25,1.57,1.98.4.73.61,1.52.61,2.37,0,2.53-.15,5.02-.44,7.48-.29,2.46-.44,4.95-.44,7.48,0,1.61.18,3.19.55,4.73s.78,3.08,1.24,4.62c.46,1.54.87,3.07,1.24,4.59.37,1.52.55,3.09.55,4.7s-.16,3.05-.49,4.43-.85,2.57-1.54,3.58c-.7,1.01-1.6,1.8-2.7,2.36-1.1.57-2.44.85-4.01.85s-2.89-.33-4.04-.99c-1.16-.66-2.13-1.52-2.92-2.58-.79-1.06-1.38-2.27-1.79-3.63-.4-1.36-.61-2.73-.61-4.12,0-.95-.18-2.15-.55-3.57-.37-1.43-.83-2.83-1.4-4.21-.57-1.38-1.21-2.55-1.93-3.52-.71-.97-1.4-1.46-2.06-1.46-.33,0-.59.1-.77.3-.18.2-.33.46-.44.77-.11.31-.18.63-.19.96-.02.33-.03.61-.03.83,0,.99.18,1.96.55,2.92.37.95.76,1.92,1.18,2.92.42.99.82,2.04,1.18,3.16.37,1.12.55,2.36.55,3.71s-.21,2.57-.63,3.74c-.42,1.17-1.02,2.2-1.79,3.08-.77.88-1.71,1.57-2.83,2.06-1.12.5-2.38.74-3.77.74-1.32,0-2.54-.26-3.66-.77-1.12-.51-2.09-1.2-2.91-2.06-.83-.86-1.48-1.87-1.95-3.02-.48-1.16-.71-2.39-.71-3.71,0-2.2.2-4.36.61-6.49.4-2.13.83-4.24,1.29-6.35.46-2.11.89-4.23,1.29-6.35.4-2.13.61-4.27.61-6.44,0-1.65-.17-3.26-.52-4.84-.35-1.58-.52-3.02-.52-4.35,0-1.8.61-3.15,1.84-4.07,1.23-.92,2.67-1.38,4.32-1.38Z"/></svg>