<?xml version="1.0" encoding="UTF-8"?><svg id="Layer_1" xmlns="http://www.w3.org/2000/svg" width="434" height="161" viewBox="0 0 434 161"><defs><style>.cls-1{fill:#000;stroke-width:0px;}.cls-2{fill:#ff910a;stroke:#000;stroke-miterlimit:10;}</style></defs><rect class="cls-2" x="14.5" y="13.5" width="403" height="129" rx="12" ry="12"/><path class="cls-1" d="M36.39,54.44c0-2.79.31-5.27.93-7.46.62-2.18,1.5-4.03,2.64-5.53,1.15-1.5,2.55-2.66,4.2-3.46,1.65-.8,3.5-1.2,5.55-1.2,1.26,0,2.44.13,3.55.39,1.11.26,2.07.64,2.88,1.15.81.51,1.46,1.12,1.94,1.83.48.72.72,1.53.72,2.44,0,1.01-.56,1.82-1.68,2.42-1.12.6-2.61.91-4.46.91-1.08,0-2.13.09-3.13.26-1,.17-1.88.51-2.65,1-.76.49-1.38,1.18-1.83,2.05-.46.88-.68,2.02-.68,3.42,0,.59.11,1.15.33,1.68s.54,1,.94,1.41c.41.41.91.73,1.52.96s1.28.35,2.02.35c.64,0,1.28-.09,1.92-.26.64-.17,1.22-.39,1.74-.67.52-.27.94-.58,1.26-.92.32-.34.48-.68.48-1,0-.71-.74-1.07-2.22-1.07-.42,0-.86.03-1.31.07-.46.05-.89.07-1.31.07-.91,0-1.57-.17-1.98-.5s-.61-.86-.61-1.57.18-1.28.54-1.7c.36-.42.81-.73,1.35-.92.54-.2,1.12-.32,1.74-.37.62-.05,1.2-.07,1.74-.07,1.87,0,3.51.1,4.9.3,1.39.2,2.56.62,3.5,1.28s1.64,1.58,2.11,2.79c.47,1.21.7,2.84.7,4.88s-.36,4.08-1.07,5.94c-.72,1.86-1.71,3.5-3,4.9-1.28,1.41-2.81,2.52-4.57,3.33-1.76.81-3.71,1.22-5.83,1.22s-3.95-.45-5.55-1.35-2.95-2.16-4.03-3.77-1.91-3.55-2.46-5.81c-.56-2.26-.83-4.73-.83-7.42Z"/><path class="cls-1" d="M81.75,54.74c0,.27.24.62.72,1.04.48.42,1.08.89,1.79,1.42.71.53,1.5,1.12,2.35,1.76s1.63,1.32,2.35,2.04,1.31,1.47,1.79,2.26c.48.79.72,1.6.72,2.44,0,.79-.19,1.54-.57,2.24-.38.7-.88,1.33-1.48,1.87-.6.54-1.28.97-2.03,1.29-.75.32-1.5.48-2.24.48-.47,0-.94-.03-1.42-.09-.48-.06-.94-.18-1.37-.35-.43-.17-.83-.41-1.18-.7s-.66-.68-.91-1.15c-.22-.39-.41-.97-.57-1.74-.16-.76-.31-1.6-.46-2.5-.15-.9-.3-1.83-.44-2.79-.15-.96-.33-1.83-.54-2.61-.21-.78-.46-1.41-.74-1.91-.28-.49-.64-.74-1.05-.74s-.78.15-1.07.44-.44.65-.44,1.07c0,.69.16,1.34.48,1.94.32.6.67,1.2,1.04,1.78.37.58.71,1.18,1.04,1.79.32.62.48,1.29.48,2.04,0,.86-.2,1.67-.61,2.42-.41.75-.94,1.4-1.59,1.94-.65.54-1.39.97-2.22,1.28s-1.65.46-2.46.46c-1.85,0-3.34-.44-4.48-1.31-1.13-.88-1.73-2.24-1.78-4.09v-.3c0-.81.13-1.61.39-2.39.26-.78.54-1.55.85-2.31.31-.76.59-1.54.85-2.31.26-.78.39-1.57.39-2.39,0-1.08-.12-2.14-.35-3.16s-.5-2.05-.79-3.07c-.3-1.02-.56-2.05-.8-3.09s-.35-2.1-.35-3.18c0-1.23.25-2.36.74-3.38s1.15-1.91,1.96-2.65c.81-.74,1.76-1.31,2.83-1.72,1.07-.41,2.2-.61,3.38-.61,1.55,0,3.11.24,4.68.72,1.57.48,2.97,1.18,4.2,2.11s2.24,2.07,3.02,3.42c.78,1.36,1.17,2.92,1.17,4.7,0,1.33-.27,2.41-.81,3.24s-1.15,1.5-1.81,2.04-1.27.96-1.81,1.29-.81.67-.81,1.02ZM73.98,48.3c0,.3.02.66.06,1.09s.12.84.24,1.22c.12.38.31.71.56.98.25.27.58.41,1,.41.32,0,.64-.12.96-.35.32-.23.62-.52.89-.87.27-.34.49-.71.67-1.11.17-.39.26-.75.26-1.07,0-.34-.07-.68-.2-1-.14-.32-.32-.6-.55-.85-.24-.25-.51-.44-.81-.59-.31-.15-.62-.22-.94-.22-.64,0-1.15.25-1.54.76-.38.51-.57,1.04-.57,1.61Z"/><path class="cls-1" d="M115.42,51.44c0,.49.06,1.07.17,1.74.11.67.24,1.41.39,2.24.15.83.28,1.75.39,2.78.11,1.02.17,2.13.17,3.31,0,1.36-.28,2.63-.83,3.83-.55,1.2-1.38,2.25-2.48,3.15s-2.47,1.62-4.11,2.15-3.56.8-5.75.8c-2.07,0-3.88-.25-5.44-.74-1.55-.49-2.85-1.19-3.88-2.09-1.04-.9-1.81-2-2.33-3.29-.52-1.3-.78-2.73-.78-4.31s.11-3.19.31-4.68c.21-1.49.32-2.78.32-3.87,0-.71-.05-1.43-.15-2.15-.1-.71-.2-1.44-.31-2.17-.11-.73-.22-1.47-.31-2.22-.1-.75-.15-1.52-.15-2.31,0-1.01.11-1.96.33-2.85.22-.89.57-1.67,1.05-2.35.48-.68,1.08-1.21,1.81-1.61.73-.39,1.58-.59,2.57-.59,1.78,0,3.15.58,4.12,1.74.97,1.16,1.46,2.76,1.46,4.81,0,.89-.07,1.73-.22,2.53-.15.8-.31,1.55-.5,2.26-.18.7-.36,1.36-.52,1.98-.16.62-.24,1.17-.24,1.67,0,.52.06,1.07.17,1.67s.3,1.14.55,1.65c.26.51.59.93.98,1.28.39.35.89.52,1.48.52.52,0,.99-.13,1.41-.39.42-.26.78-.62,1.07-1.07.3-.46.52-.98.67-1.57.15-.59.22-1.22.22-1.89s-.07-1.31-.2-1.94c-.14-.63-.28-1.26-.44-1.89-.16-.63-.31-1.27-.44-1.92-.14-.65-.2-1.35-.2-2.09,0-.84.09-1.62.28-2.33.18-.71.49-1.33.92-1.85.43-.52.98-.92,1.65-1.22s1.48-.44,2.44-.44c.72,0,1.39.13,2.04.39s1.2.64,1.67,1.13.84,1.08,1.11,1.76c.27.68.41,1.45.41,2.31s-.04,1.68-.13,2.46c-.09.78-.18,1.5-.3,2.18-.11.68-.21,1.31-.3,1.91-.09.59-.13,1.13-.13,1.63Z"/><path class="cls-1" d="M123.71,37.68c1.06,0,1.89.21,2.5.63.6.42,1.05,1.15,1.35,2.18.1.35.26.86.48,1.55s.49,1.46.81,2.31c.32.85.67,1.73,1.05,2.63s.78,1.72,1.2,2.46c.42.74.84,1.34,1.28,1.81.43.47.86.7,1.28.7.3,0,.55-.15.76-.46.21-.31.37-.67.48-1.09.11-.42.19-.84.24-1.26.05-.42.07-.73.07-.92,0-.67-.07-1.33-.22-1.98-.15-.65-.31-1.3-.48-1.94-.17-.64-.33-1.28-.48-1.91-.15-.63-.22-1.28-.22-1.94,0-1.48.42-2.57,1.26-3.27.84-.7,1.97-1.05,3.4-1.05.52,0,1.05.11,1.59.33.54.22,1.03.53,1.46.92s.78.84,1.05,1.33c.27.49.41,1.02.41,1.59,0,1.7-.1,3.38-.3,5.03-.2,1.65-.3,3.33-.3,5.03,0,1.08.12,2.15.37,3.18.25,1.04.52,2.07.83,3.11.31,1.04.59,2.07.83,3.09.25,1.02.37,2.08.37,3.16s-.11,2.05-.33,2.98c-.22.92-.57,1.73-1.04,2.4s-1.07,1.21-1.81,1.59c-.74.38-1.64.57-2.7.57s-1.94-.22-2.72-.67c-.78-.44-1.43-1.02-1.96-1.74-.53-.72-.93-1.53-1.2-2.44-.27-.91-.41-1.84-.41-2.78,0-.64-.12-1.44-.37-2.41-.25-.96-.56-1.91-.94-2.83-.38-.92-.81-1.71-1.29-2.37-.48-.65-.94-.98-1.39-.98-.22,0-.39.07-.52.2-.12.14-.22.31-.3.52-.07.21-.12.42-.13.65-.01.22-.02.41-.02.55,0,.67.12,1.32.37,1.96.25.64.51,1.29.8,1.96.28.67.55,1.38.79,2.13.25.75.37,1.58.37,2.5s-.14,1.73-.43,2.52-.68,1.48-1.2,2.07c-.52.59-1.15,1.05-1.91,1.39-.75.33-1.6.5-2.54.5-.89,0-1.71-.17-2.46-.52-.75-.35-1.41-.81-1.96-1.39-.56-.58-.99-1.26-1.31-2.03-.32-.78-.48-1.61-.48-2.5,0-1.48.14-2.93.41-4.37.27-1.43.56-2.85.87-4.27.31-1.42.6-2.84.87-4.27.27-1.43.41-2.87.41-4.33,0-1.11-.12-2.19-.35-3.26-.24-1.06-.35-2.04-.35-2.92,0-1.21.41-2.12,1.24-2.74.83-.62,1.79-.92,2.9-.92Z"/><path class="cls-1" d="M153.83,36.75c2.61,0,4.96.55,7.05,1.65,2.08,1.1,3.86,2.55,5.33,4.35,1.47,1.8,2.59,3.85,3.37,6.16.78,2.31,1.17,4.67,1.17,7.09,0,2.24-.35,4.38-1.04,6.4-.69,2.02-1.68,3.81-2.98,5.35s-2.86,2.77-4.7,3.68c-1.84.91-3.9,1.37-6.2,1.37-1.04,0-2.08-.11-3.14-.33s-2.02-.59-2.87-1.09c-.85-.51-1.55-1.18-2.09-2.02-.54-.84-.81-1.88-.81-3.11,0-.79.07-1.62.22-2.48.15-.86.31-1.74.5-2.65.19-.9.35-1.79.5-2.66.15-.88.22-1.71.22-2.5,0-1.01-.09-2-.26-2.98-.17-.97-.37-1.95-.59-2.92-.22-.97-.42-1.96-.59-2.94s-.26-1.99-.26-3c0-2.42.58-4.25,1.74-5.5,1.16-1.25,2.97-1.87,5.44-1.87ZM157.53,46.37c-.54,0-.97.16-1.28.48-.31.32-.54.72-.7,1.18s-.26.97-.3,1.5c-.04.53-.06.99-.06,1.39,0,.35,0,.8.02,1.37s.09,1.13.22,1.68c.14.55.35,1.03.63,1.42.28.4.68.59,1.2.59s1.06-.14,1.55-.43c.49-.28.92-.66,1.29-1.13.37-.47.66-1,.87-1.61.21-.6.31-1.24.31-1.91,0-.49-.1-1-.3-1.54-.2-.53-.46-1.02-.8-1.46s-.73-.81-1.18-1.11c-.46-.3-.96-.44-1.5-.44Z"/><path class="cls-1" d="M171.55,43.27c0-1.06.15-1.97.46-2.74.31-.76.73-1.4,1.28-1.91.54-.5,1.19-.88,1.94-1.11.75-.23,1.56-.35,2.42-.35s1.7.13,2.44.39c.74.26,1.37.62,1.89,1.09.52.47.92,1.02,1.2,1.65.28.63.43,1.3.43,2.02,0,.76-.17,1.55-.5,2.37s-.7,1.67-1.11,2.57c-.41.9-.78,1.86-1.11,2.87s-.5,2.1-.5,3.26c0,1.55.33,2.81,1,3.77s1.54,1.44,2.63,1.44c.81,0,1.48-.24,2-.72.52-.48,1.02-1.02,1.5-1.61.48-.59,1-1.13,1.55-1.61.55-.48,1.26-.72,2.13-.72,1.31,0,2.32.61,3.05,1.83.73,1.22,1.09,2.92,1.09,5.09,0,3.97-1.26,6.92-3.77,8.86-2.52,1.94-6.18,2.9-10.99,2.9-1.53,0-2.84-.12-3.92-.35-1.09-.23-1.97-.6-2.66-1.11-.69-.51-1.2-1.17-1.54-1.98-.33-.81-.51-1.8-.54-2.96v-.37c0-.94.07-1.91.22-2.92.15-1.01.3-2.04.46-3.09.16-1.05.31-2.1.46-3.16.15-1.06.22-2.08.22-3.07s-.09-1.91-.28-2.76c-.19-.85-.38-1.68-.59-2.5-.21-.81-.41-1.63-.59-2.46-.18-.83-.28-1.7-.28-2.61Z"/><path class="cls-1" d="M196.49,65.69c0-.86.2-1.71.61-2.53.41-.83.9-1.63,1.48-2.42.58-.79,1.2-1.54,1.85-2.26.65-.71,1.21-1.39,1.68-2.04.76-1.01,1.34-2.02,1.72-3.02.38-1,.66-1.98.83-2.94s.28-1.89.31-2.79.08-1.76.13-2.57c.05-.81.14-1.57.28-2.26.13-.69.4-1.31.8-1.85.44-.62.97-1.13,1.57-1.55.6-.42,1.26-.76,1.96-1.04s1.43-.47,2.18-.59c.75-.12,1.5-.19,2.24-.19,1.11,0,2.2.19,3.28.56,1.07.37,1.91,1.06,2.5,2.07.32-.64.75-1.19,1.29-1.65.54-.46,1.16-.83,1.85-1.13s1.43-.51,2.22-.65c.79-.14,1.58-.2,2.37-.2,1.7,0,3.29.06,4.75.19s2.74.35,3.81.68c1.07.33,1.92.81,2.53,1.42.62.62.92,1.41.92,2.37s-.17,1.65-.5,2.2c-.33.56-.78.99-1.33,1.31-.56.32-1.18.55-1.89.7-.7.15-1.42.28-2.15.41-.73.12-1.44.26-2.13.41-.69.15-1.29.38-1.81.7-.22.12-.44.3-.67.54-.22.24-.33.49-.33.76s.08.49.24.65.35.28.57.37c.22.09.46.14.72.17.26.03.49.04.68.04.64,0,1.33-.02,2.07-.07.74-.05,1.42.09,2.04.41.37.2.77.48,1.2.85.43.37.65.8.65,1.29,0,.52-.19.92-.57,1.22-.38.3-.86.54-1.44.72-.58.18-1.2.35-1.87.48-.67.14-1.29.28-1.87.44-.58.16-1.06.36-1.44.61-.38.25-.57.59-.57,1.04v.18c.27.42.53.89.78,1.41.25.17.52.3.83.37.31.07.63.11.98.11.59,0,1.18-.05,1.76-.15.58-.1,1.15-.2,1.72-.31s1.14-.21,1.72-.3c.58-.09,1.17-.13,1.76-.13.96,0,1.74.15,2.35.46.6.31,1.08.73,1.42,1.28.35.54.58,1.18.7,1.91.12.73.19,1.52.19,2.39,0,2.05-.46,3.68-1.39,4.88-.92,1.21-2.11,2.13-3.55,2.78-1.44.64-3.02,1.05-4.74,1.24-1.71.19-3.37.28-4.98.28-1.18,0-2.33-.08-3.42-.24s-2.11-.44-3.03-.85c-.93-.41-1.73-.95-2.42-1.63-.69-.68-1.2-1.52-1.52-2.54-.64-.79-1.16-1.65-1.55-2.57s-.75-1.79-1.05-2.59-.61-1.47-.91-2.02c-.3-.54-.69-.81-1.18-.81-.1,0-.2.01-.31.04-.11.03-.2.07-.28.15-.67.49-1.12,1.15-1.37,1.96-.25.81-.42,1.68-.52,2.61s-.2,1.86-.3,2.81-.36,1.8-.78,2.55c-.42.75-1.06,1.37-1.92,1.85-.86.48-2.1.72-3.7.72-2.54,0-4.52-.55-5.94-1.67-1.42-1.11-2.13-2.79-2.13-5.03ZM211.07,51.44c0,.37.09.69.28.96.18.27.43.49.72.65s.62.28.96.37c.34.09.68.13,1,.13.3,0,.62-.04.98-.11.36-.07.69-.2,1-.37.31-.17.56-.38.76-.63.2-.25.3-.55.3-.92,0-.34-.08-.7-.24-1.07-.16-.37-.38-.71-.67-1.04s-.62-.58-1-.78-.78-.3-1.2-.3c-.44,0-.84.1-1.18.3-.35.2-.65.45-.91.76-.26.31-.46.64-.59,1s-.2.71-.2,1.05Z"/><path class="cls-1" d="M243.26,54.44c0-2.79.31-5.27.93-7.46.62-2.18,1.5-4.03,2.65-5.53,1.15-1.5,2.55-2.66,4.2-3.46,1.65-.8,3.5-1.2,5.55-1.2,1.26,0,2.44.13,3.55.39,1.11.26,2.07.64,2.89,1.15.81.51,1.46,1.12,1.94,1.83.48.72.72,1.53.72,2.44,0,1.01-.56,1.82-1.68,2.42-1.12.6-2.61.91-4.46.91-1.09,0-2.13.09-3.13.26-1,.17-1.88.51-2.65,1-.77.49-1.38,1.18-1.83,2.05-.46.88-.68,2.02-.68,3.42,0,.59.11,1.15.33,1.68.22.53.54,1,.94,1.41s.91.73,1.52.96c.6.23,1.28.35,2.02.35.64,0,1.28-.09,1.92-.26.64-.17,1.22-.39,1.74-.67.52-.27.94-.58,1.26-.92.32-.34.48-.68.48-1,0-.71-.74-1.07-2.22-1.07-.42,0-.86.03-1.31.07-.46.05-.89.07-1.31.07-.91,0-1.57-.17-1.98-.5s-.61-.86-.61-1.57.18-1.28.54-1.7c.36-.42.81-.73,1.35-.92.54-.2,1.12-.32,1.74-.37.62-.05,1.2-.07,1.74-.07,1.87,0,3.51.1,4.9.3,1.39.2,2.56.62,3.5,1.28s1.64,1.58,2.11,2.79c.47,1.21.7,2.84.7,4.88s-.36,4.08-1.07,5.94c-.72,1.86-1.71,3.5-3,4.9-1.28,1.41-2.81,2.52-4.57,3.33-1.76.81-3.71,1.22-5.83,1.22s-3.95-.45-5.55-1.35-2.95-2.16-4.03-3.77c-1.08-1.62-1.91-3.55-2.46-5.81s-.83-4.73-.83-7.42Z"/><path class="cls-1" d="M271.86,54.44c0-2.79.31-5.27.93-7.46.62-2.18,1.5-4.03,2.65-5.53,1.15-1.5,2.55-2.66,4.2-3.46,1.65-.8,3.5-1.2,5.55-1.2,1.26,0,2.44.13,3.55.39,1.11.26,2.07.64,2.89,1.15.81.51,1.46,1.12,1.94,1.83.48.72.72,1.53.72,2.44,0,1.01-.56,1.82-1.68,2.42-1.12.6-2.61.91-4.46.91-1.09,0-2.13.09-3.13.26-1,.17-1.88.51-2.65,1-.77.49-1.38,1.18-1.83,2.05-.46.88-.68,2.02-.68,3.42,0,.59.11,1.15.33,1.68.22.53.54,1,.94,1.41s.91.73,1.52.96c.6.23,1.28.35,2.02.35.64,0,1.28-.09,1.92-.26.64-.17,1.22-.39,1.74-.67.52-.27.94-.58,1.26-.92.32-.34.48-.68.48-1,0-.71-.74-1.07-2.22-1.07-.42,0-.86.03-1.31.07-.46.05-.89.07-1.31.07-.91,0-1.57-.17-1.98-.5s-.61-.86-.61-1.57.18-1.28.54-1.7c.36-.42.81-.73,1.35-.92.54-.2,1.12-.32,1.74-.37.62-.05,1.2-.07,1.74-.07,1.87,0,3.51.1,4.9.3,1.39.2,2.56.62,3.5,1.28s1.64,1.58,2.11,2.79c.47,1.21.7,2.84.7,4.88s-.36,4.08-1.07,5.94c-.72,1.86-1.71,3.5-3,4.9-1.28,1.41-2.81,2.52-4.57,3.33-1.76.81-3.71,1.22-5.83,1.22s-3.95-.45-5.55-1.35-2.95-2.16-4.03-3.77c-1.08-1.62-1.91-3.55-2.46-5.81s-.83-4.73-.83-7.42Z"/><path class="cls-1" d="M308.9,36.64c1.7,0,3.28.06,4.74.19,1.46.12,2.72.35,3.79.68s1.92.81,2.53,1.42c.62.62.93,1.41.93,2.37s-.17,1.65-.5,2.2c-.33.56-.78.99-1.33,1.31s-1.18.55-1.89.7c-.7.15-1.42.28-2.15.41-.73.12-1.44.26-2.13.41-.69.15-1.29.38-1.81.7-.22.12-.44.3-.67.54-.22.24-.33.49-.33.76s.08.49.24.65c.16.16.35.28.57.37.22.09.46.14.72.17.26.03.49.04.68.04.64,0,1.33-.02,2.07-.07.74-.05,1.42.09,2.04.41.37.2.77.48,1.2.85.43.37.65.8.65,1.29,0,.52-.19.92-.57,1.22s-.86.54-1.44.72c-.58.18-1.2.35-1.87.48-.67.14-1.29.28-1.87.44-.58.16-1.06.36-1.44.61-.38.25-.57.59-.57,1.04,0,.76.27,1.3.81,1.61.54.31,1.13.46,1.78.46.59,0,1.18-.05,1.76-.15.58-.1,1.15-.2,1.72-.31.57-.11,1.14-.21,1.72-.3.58-.09,1.17-.13,1.76-.13.96,0,1.75.15,2.35.46s1.08.73,1.42,1.28c.34.54.58,1.18.7,1.91.12.73.18,1.52.18,2.39,0,2.05-.46,3.68-1.39,4.88-.92,1.21-2.11,2.13-3.55,2.78s-3.02,1.05-4.74,1.24c-1.71.19-3.37.28-4.98.28-1.41,0-2.76-.12-4.05-.37-1.29-.25-2.44-.67-3.44-1.26-1-.59-1.79-1.39-2.39-2.39-.59-1-.89-2.26-.89-3.79,0-1.06.18-2.02.55-2.87.37-.85.77-1.68,1.2-2.5.43-.81.83-1.66,1.2-2.53.37-.88.55-1.87.55-2.98,0-1.26-.12-2.38-.35-3.37-.23-.99-.49-1.91-.76-2.77-.27-.86-.52-1.72-.76-2.57-.23-.85-.35-1.76-.35-2.72,0-1.13.24-2.09.72-2.87.48-.78,1.12-1.41,1.91-1.91.79-.49,1.68-.85,2.68-1.07,1-.22,2-.33,3.02-.33Z"/><path class="cls-1" d="M331.28,37.68c1.06,0,1.89.21,2.5.63.6.42,1.05,1.15,1.35,2.18.1.35.26.86.48,1.55s.49,1.46.81,2.31c.32.85.67,1.73,1.05,2.63s.78,1.72,1.2,2.46c.42.74.84,1.34,1.28,1.81.43.47.86.7,1.28.7.3,0,.55-.15.76-.46.21-.31.37-.67.48-1.09.11-.42.19-.84.24-1.26.05-.42.07-.73.07-.92,0-.67-.07-1.33-.22-1.98-.15-.65-.31-1.3-.48-1.94-.17-.64-.33-1.28-.48-1.91-.15-.63-.22-1.28-.22-1.94,0-1.48.42-2.57,1.26-3.27.84-.7,1.97-1.05,3.4-1.05.52,0,1.05.11,1.59.33.54.22,1.03.53,1.46.92s.78.84,1.05,1.33c.27.49.41,1.02.41,1.59,0,1.7-.1,3.38-.3,5.03-.2,1.65-.3,3.33-.3,5.03,0,1.08.12,2.15.37,3.18.25,1.04.52,2.07.83,3.11.31,1.04.59,2.07.83,3.09.25,1.02.37,2.08.37,3.16s-.11,2.05-.33,2.98c-.22.92-.57,1.73-1.04,2.4s-1.07,1.21-1.81,1.59c-.74.38-1.64.57-2.7.57s-1.94-.22-2.72-.67c-.78-.44-1.43-1.02-1.96-1.74-.53-.72-.93-1.53-1.2-2.44-.27-.91-.41-1.84-.41-2.78,0-.64-.12-1.44-.37-2.41-.25-.96-.56-1.91-.94-2.83-.38-.92-.81-1.71-1.29-2.37-.48-.65-.94-.98-1.39-.98-.22,0-.39.07-.52.2-.12.14-.22.31-.3.52-.07.21-.12.42-.13.65-.01.22-.02.41-.02.55,0,.67.12,1.32.37,1.96.25.64.51,1.29.8,1.96.28.67.55,1.38.79,2.13.25.75.37,1.58.37,2.5s-.14,1.73-.43,2.52-.68,1.48-1.2,2.07c-.52.59-1.15,1.05-1.91,1.39-.75.33-1.6.5-2.54.5-.89,0-1.71-.17-2.46-.52-.75-.35-1.41-.81-1.96-1.39-.56-.58-.99-1.26-1.31-2.03-.32-.78-.48-1.61-.48-2.5,0-1.48.14-2.93.41-4.37.27-1.43.56-2.85.87-4.27.31-1.42.6-2.84.87-4.27.27-1.43.41-2.87.41-4.33,0-1.11-.12-2.19-.35-3.26-.24-1.06-.35-2.04-.35-2.92,0-1.21.41-2.12,1.24-2.74.83-.62,1.79-.92,2.9-.92Z"/><path class="cls-1" d="M361.4,36.75c2.61,0,4.96.55,7.05,1.65,2.08,1.1,3.86,2.55,5.33,4.35,1.47,1.8,2.59,3.85,3.37,6.16.78,2.31,1.17,4.67,1.17,7.09,0,2.24-.35,4.38-1.04,6.4-.69,2.02-1.68,3.81-2.98,5.35s-2.86,2.77-4.7,3.68c-1.84.91-3.9,1.37-6.2,1.37-1.04,0-2.08-.11-3.14-.33s-2.02-.59-2.87-1.09c-.85-.51-1.55-1.18-2.09-2.02-.54-.84-.81-1.88-.81-3.11,0-.79.07-1.62.22-2.48.15-.86.31-1.74.5-2.65.19-.9.35-1.79.5-2.66.15-.88.22-1.71.22-2.5,0-1.01-.09-2-.26-2.98-.17-.97-.37-1.95-.59-2.92-.22-.97-.42-1.96-.59-2.94s-.26-1.99-.26-3c0-2.42.58-4.25,1.74-5.5,1.16-1.25,2.97-1.87,5.44-1.87ZM365.1,46.37c-.54,0-.97.16-1.28.48-.31.32-.54.72-.7,1.18s-.26.97-.3,1.5c-.04.53-.06.99-.06,1.39,0,.35,0,.8.02,1.37s.09,1.13.22,1.68c.14.55.35,1.03.63,1.42.28.4.68.59,1.2.59s1.06-.14,1.55-.43c.49-.28.92-.66,1.29-1.13.37-.47.66-1,.87-1.61.21-.6.31-1.24.31-1.91,0-.49-.1-1-.3-1.54-.2-.53-.46-1.02-.8-1.46s-.73-.81-1.18-1.11c-.46-.3-.96-.44-1.5-.44Z"/><path class="cls-1" d="M388.11,36.64c1.7,0,3.28.06,4.74.19,1.46.12,2.72.35,3.79.68s1.92.81,2.53,1.42c.62.62.93,1.41.93,2.37s-.17,1.65-.5,2.2c-.33.56-.78.99-1.33,1.31s-1.18.55-1.89.7c-.7.15-1.42.28-2.15.41-.73.12-1.44.26-2.13.41-.69.15-1.29.38-1.81.7-.22.12-.44.3-.67.54-.22.24-.33.49-.33.76s.08.49.24.65c.16.16.35.28.57.37.22.09.46.14.72.17.26.03.49.04.68.04.64,0,1.33-.02,2.07-.07.74-.05,1.42.09,2.04.41.37.2.77.48,1.2.85.43.37.65.8.65,1.29,0,.52-.19.92-.57,1.22s-.86.54-1.44.72c-.58.18-1.2.35-1.87.48-.67.14-1.29.28-1.87.44-.58.16-1.06.36-1.44.61-.38.25-.57.59-.57,1.04,0,.76.27,1.3.81,1.61.54.31,1.13.46,1.78.46.59,0,1.18-.05,1.76-.15.58-.1,1.15-.2,1.72-.31.57-.11,1.14-.21,1.72-.3.58-.09,1.17-.13,1.76-.13.96,0,1.75.15,2.35.46s1.08.73,1.42,1.28c.34.54.58,1.18.7,1.91.12.73.18,1.52.18,2.39,0,2.05-.46,3.68-1.39,4.88-.92,1.21-2.11,2.13-3.55,2.78s-3.02,1.05-4.74,1.24c-1.71.19-3.37.28-4.98.28-1.41,0-2.76-.12-4.05-.37-1.29-.25-2.44-.67-3.44-1.26-1-.59-1.79-1.39-2.39-2.39-.59-1-.89-2.26-.89-3.79,0-1.06.18-2.02.55-2.87.37-.85.77-1.68,1.2-2.5.43-.81.83-1.66,1.2-2.53.37-.88.55-1.87.55-2.98,0-1.26-.12-2.38-.35-3.37-.23-.99-.49-1.91-.76-2.77-.27-.86-.52-1.72-.76-2.57-.23-.85-.35-1.76-.35-2.72,0-1.13.24-2.09.72-2.87.48-.78,1.12-1.41,1.91-1.91.79-.49,1.68-.85,2.68-1.07,1-.22,2-.33,3.02-.33Z"/><path class="cls-1" d="M42.87,80.97c1.75,0,3.12.38,4.11,1.13.99.75,1.48,1.79,1.48,3.13,0,.67-.1,1.42-.3,2.26-.2.84-.41,1.73-.63,2.68-.22.95-.43,1.94-.63,2.98s-.29,2.1-.29,3.18c0,1.18.2,2.27.61,3.26.41.99.86,1.96,1.35,2.92.49.96.94,1.95,1.35,2.96.41,1.01.62,2.13.65,3.37v.19c0,5.8-2.49,8.69-7.47,8.69-2.2,0-3.93-.55-5.2-1.65s-1.94-2.62-2.02-4.57v-.3c0-1.08.17-2.07.5-2.96.33-.89.69-1.79,1.07-2.72s.74-1.92,1.07-2.98c.33-1.06.5-2.31.5-3.74,0-1.31-.13-2.46-.41-3.46s-.57-1.93-.91-2.79c-.33-.86-.64-1.72-.93-2.57-.28-.85-.43-1.79-.43-2.83,0-1.97.56-3.5,1.68-4.57,1.12-1.07,2.73-1.61,4.83-1.61Z"/><path class="cls-1" d="M57.37,82.08c1.06,0,1.89.21,2.5.63.6.42,1.05,1.15,1.35,2.18.1.35.26.86.48,1.55.22.69.49,1.46.81,2.31.32.85.67,1.73,1.05,2.63.38.9.78,1.72,1.2,2.46.42.74.85,1.34,1.28,1.81.43.47.86.7,1.28.7.3,0,.55-.15.76-.46.21-.31.37-.67.48-1.09.11-.42.19-.84.24-1.26.05-.42.07-.73.07-.92,0-.67-.07-1.33-.22-1.98-.15-.65-.31-1.3-.48-1.94-.17-.64-.33-1.28-.48-1.91-.15-.63-.22-1.28-.22-1.94,0-1.48.42-2.57,1.26-3.27s1.97-1.05,3.4-1.05c.52,0,1.05.11,1.59.33.54.22,1.03.53,1.46.92s.78.84,1.05,1.33c.27.49.41,1.02.41,1.59,0,1.7-.1,3.38-.29,5.03-.2,1.65-.3,3.33-.3,5.03,0,1.08.12,2.15.37,3.18.25,1.04.53,2.07.83,3.11.31,1.04.59,2.07.83,3.09.25,1.02.37,2.08.37,3.16s-.11,2.05-.33,2.98-.57,1.73-1.04,2.4-1.07,1.21-1.81,1.59c-.74.38-1.64.57-2.7.57s-1.94-.22-2.72-.67-1.43-1.02-1.96-1.74c-.53-.72-.93-1.53-1.2-2.44-.27-.91-.41-1.84-.41-2.78,0-.64-.12-1.44-.37-2.41s-.56-1.91-.94-2.83-.81-1.71-1.29-2.37c-.48-.65-.94-.98-1.39-.98-.22,0-.39.07-.52.2-.12.14-.22.31-.3.52s-.12.42-.13.65c-.01.22-.02.41-.02.55,0,.67.12,1.32.37,1.96.25.64.51,1.29.79,1.96s.55,1.38.79,2.13c.25.75.37,1.58.37,2.5s-.14,1.73-.43,2.52c-.28.79-.68,1.48-1.2,2.07-.52.59-1.15,1.05-1.91,1.39s-1.6.5-2.53.5c-.89,0-1.71-.17-2.46-.52s-1.41-.81-1.96-1.39c-.55-.58-.99-1.26-1.31-2.03-.32-.78-.48-1.61-.48-2.5,0-1.48.14-2.93.41-4.37.27-1.43.56-2.85.87-4.27.31-1.42.6-2.84.87-4.27.27-1.43.41-2.87.41-4.33,0-1.11-.12-2.19-.35-3.26-.24-1.06-.35-2.04-.35-2.92,0-1.21.41-2.12,1.24-2.74.83-.62,1.79-.92,2.9-.92Z"/><path class="cls-1" d="M87.49,81.15c2.61,0,4.96.55,7.05,1.65,2.08,1.1,3.86,2.55,5.33,4.35,1.47,1.8,2.59,3.85,3.37,6.16.78,2.31,1.17,4.67,1.17,7.09,0,2.24-.35,4.38-1.04,6.4-.69,2.02-1.68,3.81-2.98,5.35s-2.86,2.77-4.7,3.68c-1.84.91-3.9,1.37-6.2,1.37-1.04,0-2.08-.11-3.14-.33s-2.02-.59-2.87-1.09c-.85-.51-1.55-1.18-2.09-2.02-.54-.84-.81-1.88-.81-3.11,0-.79.07-1.62.22-2.48.15-.86.31-1.74.5-2.65.19-.9.35-1.79.5-2.66.15-.88.22-1.71.22-2.5,0-1.01-.09-2-.26-2.98-.17-.97-.37-1.95-.59-2.92-.22-.97-.42-1.96-.59-2.94s-.26-1.99-.26-3c0-2.42.58-4.25,1.74-5.5,1.16-1.25,2.97-1.87,5.44-1.87ZM91.19,90.77c-.54,0-.97.16-1.28.48-.31.32-.54.72-.7,1.18s-.26.97-.3,1.5c-.04.53-.06.99-.06,1.39,0,.35,0,.8.02,1.37s.09,1.13.22,1.68c.14.55.35,1.03.63,1.42.28.4.68.59,1.2.59s1.06-.14,1.55-.43c.49-.28.92-.66,1.29-1.13.37-.47.66-1,.87-1.61.21-.6.31-1.24.31-1.91,0-.49-.1-1-.3-1.54-.2-.53-.46-1.02-.8-1.46s-.73-.81-1.18-1.11c-.46-.3-.96-.44-1.5-.44Z"/><path class="cls-1" d="M121.79,102.8c0-1.75-.79-2.63-2.37-2.63-.89,0-1.57.25-2.05.74-.48.49-.72,1.2-.72,2.11,0,.59.09,1.18.28,1.78.18.59.39,1.18.63,1.76.23.58.44,1.17.63,1.78.18.6.28,1.23.28,1.87,0,.81-.07,1.66-.22,2.53-.15.88-.44,1.67-.87,2.39-.43.71-1.05,1.3-1.85,1.76-.8.46-1.86.68-3.16.68s-2.36-.25-3.24-.74c-.88-.49-1.58-1.13-2.13-1.91-.54-.78-.94-1.64-1.2-2.59-.26-.95-.4-1.88-.42-2.79v-.26c0-.86.15-1.72.46-2.57.31-.85.65-1.73,1.02-2.63s.71-1.83,1.02-2.79.46-1.97.46-3.03c0-.94-.12-1.86-.37-2.76-.25-.9-.52-1.79-.81-2.68-.3-.89-.57-1.79-.81-2.7-.25-.91-.37-1.86-.37-2.85,0-.79.08-1.5.24-2.15s.45-1.19.87-1.65c.42-.46.98-.81,1.68-1.05.7-.25,1.61-.37,2.72-.37.89,0,1.63.23,2.24.68.6.46.99,1.05,1.17,1.79.15.62.23,1.3.24,2.05.01.75,0,1.5-.02,2.26s-.02,1.49,0,2.22.13,1.37.31,1.92c.19.55.49,1,.91,1.33.42.33,1.01.5,1.78.5.86,0,1.55-.24,2.05-.72.5-.48.76-1.12.76-1.91,0-.37-.05-.76-.15-1.17s-.2-.84-.31-1.31c-.11-.47-.22-.97-.31-1.52s-.15-1.13-.15-1.78c0-1.63.35-2.89,1.05-3.77.7-.89,1.71-1.33,3.02-1.33,1.7,0,2.97.55,3.79,1.65.83,1.1,1.24,2.71,1.24,4.83,0,.54-.03,1.13-.09,1.78s-.14,1.29-.22,1.96c-.09.67-.16,1.32-.22,1.96s-.09,1.22-.09,1.74c0,.99.12,1.85.37,2.59.25.74.5,1.53.78,2.37.22.69.51,1.39.87,2.11.36.72.7,1.46,1.04,2.24.33.78.62,1.58.87,2.41.25.83.37,1.71.37,2.65,0,1.09-.14,2.11-.41,3.07s-.68,1.81-1.22,2.53c-.54.73-1.22,1.31-2.04,1.74-.81.43-1.78.65-2.89.65-1.18,0-2.15-.18-2.91-.54-.75-.36-1.34-.83-1.78-1.42-.43-.59-.73-1.28-.89-2.05s-.24-1.57-.24-2.39v-.26c0-.74.07-1.46.22-2.17.15-.7.31-1.39.48-2.07.17-.68.33-1.34.48-1.98.15-.64.22-1.27.22-1.89Z"/><path class="cls-1" d="M147.47,81.27c1.36,0,2.63.25,3.83.76,1.2.51,2.29,1.19,3.27,2.05.99.86,1.86,1.88,2.63,3.05s1.41,2.44,1.94,3.79c.53,1.36.94,2.76,1.22,4.22.28,1.46.42,2.9.42,4.33,0,2.12-.33,4.15-.98,6.09s-1.59,3.64-2.81,5.11c-1.22,1.47-2.71,2.63-4.48,3.5s-3.77,1.29-6.01,1.29c-1.92,0-3.66-.36-5.2-1.09-1.54-.73-2.85-1.75-3.92-3.07-1.07-1.32-1.9-2.89-2.48-4.7-.58-1.81-.87-3.79-.87-5.94,0-2.57.33-5.01,1-7.34s1.6-4.39,2.79-6.18,2.61-3.21,4.25-4.27,3.43-1.59,5.38-1.59ZM143.54,96.25c0,.94.36,1.71,1.09,2.33.73.62,1.67.92,2.83.92,1.04,0,1.86-.28,2.46-.83s.91-1.3.91-2.24c0-.52-.09-1-.28-1.44-.18-.44-.44-.83-.76-1.17-.32-.33-.7-.59-1.13-.78-.43-.19-.91-.28-1.42-.28s-1,.09-1.44.28c-.44.18-.83.43-1.17.74s-.6.67-.79,1.09c-.2.42-.3.88-.3,1.37Z"/><path class="cls-1" d="M162.16,87.67c0-1.06.15-1.97.46-2.74.31-.76.73-1.4,1.28-1.91.54-.5,1.19-.88,1.94-1.11.75-.23,1.56-.35,2.42-.35s1.7.13,2.44.39c.74.26,1.37.62,1.89,1.09.52.47.92,1.02,1.2,1.65.28.63.43,1.3.43,2.02,0,.76-.17,1.55-.5,2.37s-.7,1.67-1.11,2.57c-.41.9-.78,1.86-1.11,2.87s-.5,2.1-.5,3.26c0,1.55.33,2.81,1,3.77s1.54,1.44,2.63,1.44c.81,0,1.48-.24,2-.72.52-.48,1.02-1.02,1.5-1.61.48-.59,1-1.13,1.55-1.61.55-.48,1.26-.72,2.13-.72,1.31,0,2.32.61,3.05,1.83.73,1.22,1.09,2.92,1.09,5.09,0,3.97-1.26,6.92-3.77,8.86-2.52,1.94-6.18,2.9-10.99,2.9-1.53,0-2.84-.12-3.92-.35-1.09-.23-1.97-.6-2.66-1.11-.69-.51-1.2-1.17-1.54-1.98-.33-.81-.51-1.8-.54-2.96v-.37c0-.94.07-1.91.22-2.92.15-1.01.3-2.04.46-3.09.16-1.05.31-2.1.46-3.16.15-1.06.22-2.08.22-3.07s-.09-1.91-.28-2.76c-.19-.85-.38-1.68-.59-2.5-.21-.81-.41-1.63-.59-2.46-.18-.83-.28-1.7-.28-2.61Z"/><path class="cls-1" d="M195.53,81.15c2.61,0,4.96.55,7.05,1.65,2.08,1.1,3.86,2.55,5.33,4.35,1.47,1.8,2.59,3.85,3.37,6.16.78,2.31,1.17,4.67,1.17,7.09,0,2.24-.35,4.38-1.04,6.4-.69,2.02-1.68,3.81-2.98,5.35s-2.86,2.77-4.7,3.68c-1.84.91-3.9,1.37-6.2,1.37-1.04,0-2.08-.11-3.14-.33s-2.02-.59-2.87-1.09c-.85-.51-1.55-1.18-2.09-2.02-.54-.84-.81-1.88-.81-3.11,0-.79.07-1.62.22-2.48.15-.86.31-1.74.5-2.65.19-.9.35-1.79.5-2.66.15-.88.22-1.71.22-2.5,0-1.01-.09-2-.26-2.98-.17-.97-.37-1.95-.59-2.92-.22-.97-.42-1.96-.59-2.94s-.26-1.99-.26-3c0-2.42.58-4.25,1.74-5.5,1.16-1.25,2.97-1.87,5.44-1.87ZM199.23,90.77c-.54,0-.97.16-1.28.48-.31.32-.54.72-.7,1.18s-.26.97-.3,1.5c-.04.53-.06.99-.06,1.39,0,.35,0,.8.02,1.37s.09,1.13.22,1.68c.14.55.35,1.03.63,1.42.28.4.68.59,1.2.59s1.06-.14,1.55-.43c.49-.28.92-.66,1.29-1.13.37-.47.66-1,.87-1.61.21-.6.31-1.24.31-1.91,0-.49-.1-1-.3-1.54-.2-.53-.46-1.02-.8-1.46s-.73-.81-1.18-1.11c-.46-.3-.96-.44-1.5-.44Z"/></svg>