<?xml version="1.0" encoding="UTF-8"?><svg id="Layer_1" xmlns="http://www.w3.org/2000/svg" width="422" height="153.5" viewBox="0 0 422 153.5"><defs><style>.cls-1{fill:#000;stroke-width:0px;}.cls-2{fill:#ff910a;stroke:#000;stroke-miterlimit:10;}</style></defs><rect class="cls-2" x="6.5" y="9" width="403" height="129" rx="12" ry="12"/><path class="cls-1" d="M80.51,32.1c2.57,0,4.98.48,7.25,1.44,2.26.96,4.33,2.25,6.2,3.88,1.87,1.63,3.52,3.56,4.97,5.78,1.45,2.22,2.67,4.61,3.68,7.17,1,2.57,1.77,5.23,2.31,7.98.54,2.75.8,5.48.8,8.19,0,4.01-.62,7.85-1.85,11.52-1.24,3.66-3.01,6.88-5.32,9.66-2.31,2.78-5.13,4.98-8.47,6.61-3.34,1.63-7.13,2.45-11.38,2.45-3.64,0-6.92-.69-9.83-2.06-2.92-1.38-5.39-3.31-7.42-5.81-2.03-2.5-3.59-5.46-4.69-8.89-1.1-3.43-1.64-7.17-1.64-11.23,0-4.85.63-9.49,1.89-13.9,1.26-4.41,3.02-8.31,5.29-11.69,2.26-3.38,4.95-6.08,8.05-8.09,3.1-2.01,6.5-3.01,10.18-3.01ZM73.09,60.45c0,1.77.69,3.24,2.07,4.41,1.38,1.17,3.16,1.75,5.35,1.75,1.96,0,3.51-.52,4.66-1.57,1.14-1.05,1.71-2.46,1.71-4.23,0-.98-.17-1.89-.52-2.73-.35-.84-.83-1.58-1.44-2.21-.61-.63-1.32-1.12-2.13-1.47-.82-.35-1.71-.52-2.7-.52s-1.89.17-2.73.52-1.58.82-2.21,1.4c-.63.58-1.13,1.27-1.5,2.06-.37.79-.56,1.66-.56,2.59Z"/><path class="cls-1" d="M126.15,33.08c1.82,0,3.34.48,4.55,1.44,1.21.96,2.23,2.15,3.04,3.57.82,1.42,1.5,2.96,2.07,4.62.56,1.66,1.08,3.2,1.57,4.62.49,1.42.99,2.61,1.51,3.57.51.96,1.17,1.44,1.96,1.44.61,0,1.19-.47,1.75-1.4.56-.93,1.14-2.11,1.75-3.54.61-1.42,1.28-2.96,2.03-4.62.75-1.66,1.62-3.2,2.62-4.62,1-1.42,2.17-2.6,3.5-3.54,1.33-.93,2.91-1.4,4.73-1.4s3.24.34,4.41,1.01c1.17.68,2.08,1.65,2.73,2.91.65,1.26,1.11,2.81,1.37,4.65.26,1.84.38,3.93.38,6.27,0,1.59.32,3.46.95,5.64.63,2.17,1.32,4.51,2.06,7.03.75,2.52,1.44,5.18,2.07,7.98.63,2.8.95,5.62.95,8.47,0,3.83-.33,7.02-.98,9.59-.65,2.57-1.55,4.63-2.7,6.2-1.14,1.56-2.5,2.67-4.06,3.32-1.56.65-3.28.98-5.15.98s-3.67-.33-5.28-.98c-1.61-.65-2.99-1.56-4.13-2.73-1.14-1.17-2.03-2.57-2.66-4.2-.63-1.63-.95-3.45-.95-5.46,0-2.71.23-4.95.7-6.72.47-1.77.99-3.37,1.58-4.79.58-1.42,1.11-2.81,1.57-4.17.47-1.35.7-2.99.7-4.9,0-1.07-.17-1.91-.52-2.52-.35-.61-.81-.91-1.37-.91-.51,0-.95.4-1.29,1.19-.35.79-.67,1.79-.95,2.98s-.56,2.48-.84,3.88c-.28,1.4-.64,2.7-1.08,3.89-.44,1.19-1,2.18-1.68,2.98-.68.79-1.53,1.19-2.56,1.19s-1.89-.4-2.59-1.19c-.7-.79-1.31-1.79-1.82-2.98s-.94-2.48-1.29-3.89c-.35-1.4-.68-2.69-.98-3.88-.3-1.19-.59-2.18-.88-2.98-.28-.79-.61-1.19-.98-1.19-.47,0-.85.21-1.15.63-.3.42-.54.93-.7,1.54-.16.61-.27,1.26-.32,1.96-.05.7-.07,1.31-.07,1.82,0,1.87.33,3.56.98,5.07.65,1.52,1.39,3,2.21,4.44.82,1.45,1.55,2.91,2.21,4.38.65,1.47.98,3.12.98,4.94s-.23,3.58-.7,5.29c-.47,1.7-1.29,3.2-2.49,4.48-1.19,1.28-2.81,2.32-4.87,3.12-2.05.79-4.64,1.19-7.77,1.19-2.01,0-3.75-.47-5.21-1.4-1.47-.93-2.66-2.1-3.57-3.5-.91-1.4-1.59-2.92-2.03-4.55-.44-1.63-.67-3.17-.67-4.62,0-3.41.27-6.69.81-9.83.54-3.15,1.13-6.31,1.78-9.48.65-3.17,1.25-6.43,1.79-9.77.54-3.34.81-6.9.81-10.67,0-1.68.27-3.23.8-4.66.54-1.42,1.32-2.67,2.34-3.74,1.03-1.07,2.3-1.91,3.82-2.52,1.52-.61,3.25-.91,5.21-.91Z"/><path class="cls-1" d="M220.02,33.08c1.82,0,3.34.48,4.55,1.44,1.21.96,2.23,2.15,3.04,3.57.82,1.42,1.5,2.96,2.07,4.62.56,1.66,1.08,3.2,1.57,4.62.49,1.42.99,2.61,1.51,3.57.51.96,1.17,1.44,1.96,1.44.61,0,1.19-.47,1.75-1.4.56-.93,1.14-2.11,1.75-3.54.61-1.42,1.28-2.96,2.03-4.62.75-1.66,1.62-3.2,2.62-4.62,1-1.42,2.17-2.6,3.5-3.54,1.33-.93,2.91-1.4,4.73-1.4s3.24.34,4.41,1.01c1.17.68,2.08,1.65,2.73,2.91.65,1.26,1.11,2.81,1.37,4.65.26,1.84.38,3.93.38,6.27,0,1.59.32,3.46.95,5.64.63,2.17,1.32,4.51,2.06,7.03.75,2.52,1.44,5.18,2.07,7.98.63,2.8.95,5.62.95,8.47,0,3.83-.33,7.02-.98,9.59-.65,2.57-1.55,4.63-2.7,6.2-1.14,1.56-2.5,2.67-4.06,3.32-1.56.65-3.28.98-5.15.98s-3.67-.33-5.28-.98c-1.61-.65-2.99-1.56-4.13-2.73-1.14-1.17-2.03-2.57-2.66-4.2-.63-1.63-.95-3.45-.95-5.46,0-2.71.23-4.95.7-6.72.47-1.77.99-3.37,1.58-4.79.58-1.42,1.11-2.81,1.57-4.17.47-1.35.7-2.99.7-4.9,0-1.07-.17-1.91-.52-2.52-.35-.61-.81-.91-1.37-.91-.51,0-.95.4-1.29,1.19-.35.79-.67,1.79-.95,2.98s-.56,2.48-.84,3.88c-.28,1.4-.64,2.7-1.08,3.89-.44,1.19-1,2.18-1.68,2.98-.68.79-1.53,1.19-2.56,1.19s-1.89-.4-2.59-1.19c-.7-.79-1.31-1.79-1.82-2.98s-.94-2.48-1.29-3.89c-.35-1.4-.68-2.69-.98-3.88-.3-1.19-.59-2.18-.88-2.98-.28-.79-.61-1.19-.98-1.19-.47,0-.85.21-1.15.63-.3.42-.54.93-.7,1.54-.16.61-.27,1.26-.32,1.96-.05.7-.07,1.31-.07,1.82,0,1.87.33,3.56.98,5.07.65,1.52,1.39,3,2.21,4.44.82,1.45,1.55,2.91,2.21,4.38.65,1.47.98,3.12.98,4.94s-.23,3.58-.7,5.29c-.47,1.7-1.29,3.2-2.49,4.48-1.19,1.28-2.81,2.32-4.87,3.12-2.05.79-4.64,1.19-7.77,1.19-2.01,0-3.75-.47-5.21-1.4-1.47-.93-2.66-2.1-3.57-3.5-.91-1.4-1.59-2.92-2.03-4.55-.44-1.63-.67-3.17-.67-4.62,0-3.41.27-6.69.81-9.83.54-3.15,1.13-6.31,1.78-9.48.65-3.17,1.25-6.43,1.79-9.77.54-3.34.81-6.9.81-10.67,0-1.68.27-3.23.8-4.66.54-1.42,1.32-2.67,2.34-3.74,1.03-1.07,2.3-1.91,3.82-2.52,1.52-.61,3.25-.91,5.21-.91Z"/><path class="cls-1" d="M281.34,31.54c3.31,0,5.9.71,7.77,2.14,1.87,1.42,2.8,3.4,2.8,5.92,0,1.26-.19,2.68-.56,4.27-.37,1.59-.77,3.28-1.19,5.08-.42,1.8-.82,3.67-1.19,5.64-.37,1.96-.56,3.97-.56,6.02,0,2.24.39,4.29,1.16,6.16.77,1.87,1.62,3.71,2.55,5.53.93,1.82,1.79,3.69,2.56,5.6.77,1.91,1.18,4.04,1.22,6.37v.35c0,10.97-4.71,16.45-14.14,16.45-4.15,0-7.43-1.04-9.83-3.12-2.4-2.08-3.68-4.96-3.82-8.65v-.56c0-2.05.32-3.92.95-5.6.63-1.68,1.31-3.4,2.03-5.15.72-1.75,1.4-3.63,2.03-5.63.63-2.01.95-4.36.95-7.07,0-2.47-.26-4.66-.77-6.55-.51-1.89-1.08-3.65-1.71-5.28-.63-1.63-1.21-3.25-1.75-4.87-.54-1.61-.8-3.4-.8-5.35,0-3.73,1.06-6.61,3.18-8.65,2.12-2.03,5.17-3.04,9.14-3.04Z"/><path class="cls-1" d="M298.56,65.35c0-5.27.58-9.98,1.75-14.1,1.17-4.13,2.83-7.62,5-10.46,2.17-2.85,4.82-5.03,7.94-6.55,3.13-1.52,6.63-2.27,10.5-2.27,2.38,0,4.62.25,6.72.74,2.1.49,3.92,1.21,5.46,2.17,1.54.96,2.76,2.11,3.67,3.46.91,1.35,1.37,2.89,1.37,4.62,0,1.91-1.06,3.44-3.19,4.58-2.12,1.14-4.93,1.71-8.43,1.71-2.05,0-4.03.16-5.92.49-1.89.33-3.56.96-5,1.89-1.45.93-2.6,2.23-3.46,3.89-.86,1.66-1.29,3.81-1.29,6.48,0,1.12.21,2.18.63,3.19.42,1,1.01,1.89,1.78,2.66.77.77,1.73,1.38,2.87,1.82,1.14.44,2.42.67,3.82.67,1.21,0,2.43-.16,3.64-.49,1.21-.33,2.31-.75,3.29-1.26.98-.51,1.77-1.1,2.38-1.75.61-.65.91-1.28.91-1.89,0-1.35-1.4-2.03-4.2-2.03-.79,0-1.62.05-2.48.14-.86.09-1.69.14-2.49.14-1.73,0-2.97-.31-3.75-.95-.77-.63-1.15-1.62-1.15-2.97s.34-2.43,1.01-3.22c.68-.79,1.53-1.38,2.55-1.75,1.03-.37,2.12-.61,3.29-.7,1.17-.09,2.26-.14,3.29-.14,3.55,0,6.64.19,9.28.56,2.64.37,4.84,1.18,6.61,2.42,1.77,1.24,3.1,3,3.99,5.28.89,2.29,1.33,5.37,1.33,9.24s-.68,7.71-2.03,11.23c-1.35,3.52-3.24,6.62-5.67,9.27-2.43,2.66-5.31,4.76-8.64,6.3-3.34,1.54-7.01,2.31-11.03,2.31s-7.47-.85-10.5-2.56c-3.03-1.7-5.58-4.08-7.63-7.14-2.05-3.06-3.6-6.72-4.66-10.99-1.05-4.27-1.57-8.95-1.57-14.04Z"/></svg>