<?xml version="1.0" encoding="UTF-8"?><svg id="Layer_1" xmlns="http://www.w3.org/2000/svg" width="434" height="161" viewBox="0 0 434 161"><defs><style>.cls-1{fill:#000;stroke-width:0px;}.cls-2{fill:#ff910a;stroke:#000;stroke-miterlimit:10;}</style></defs><rect class="cls-2" x="14.5" y="13.5" width="403" height="129" rx="12" ry="12"/><path class="cls-1" d="M67.82,37.46c1.55,0,3.27.03,5.16.08,1.89.05,3.8.17,5.72.36,1.92.19,3.79.49,5.6.92,1.81.43,3.44,1.01,4.88,1.76,1.76.96,3.03,2.04,3.8,3.24.77,1.2,1.16,2.81,1.16,4.84,0,2.29-.44,4.19-1.32,5.68-.88,1.49-2.57,2.24-5.08,2.24-1.17,0-2.2-.16-3.08-.48-.88-.32-1.68-.68-2.4-1.08-.72-.4-1.41-.76-2.08-1.08-.67-.32-1.37-.48-2.12-.48-.64,0-1.16.23-1.56.68-.4.45-.72,1.01-.96,1.68s-.4,1.4-.48,2.2c-.08.8-.12,1.55-.12,2.24,0,3.2.51,6.31,1.52,9.32,1.01,3.01,2.13,6.03,3.36,9.04,1.23,3.01,2.35,6.03,3.36,9.04,1.01,3.01,1.52,6.09,1.52,9.24,0,2.56-.51,4.8-1.52,6.72-1.01,1.92-2.36,3.52-4.04,4.8-1.68,1.28-3.6,2.23-5.76,2.84-2.16.61-4.39.92-6.68.92s-4.53-.31-6.72-.92c-2.19-.61-4.13-1.56-5.84-2.84-1.71-1.28-3.08-2.88-4.12-4.8-1.04-1.92-1.59-4.16-1.64-6.72v-.32c0-3.15.49-6.21,1.48-9.2.99-2.99,2.08-5.97,3.28-8.96,1.2-2.99,2.29-5.99,3.28-9,.99-3.01,1.48-6.09,1.48-9.24,0-.91.01-1.79.04-2.64.03-.85-.04-1.63-.2-2.32-.16-.69-.49-1.24-1-1.64-.51-.4-1.29-.6-2.36-.6-.85,0-1.65.16-2.4.48-.75.32-1.51.68-2.28,1.08-.77.4-1.56.76-2.36,1.08-.8.32-1.68.48-2.64.48-2.24,0-4-.63-5.28-1.88-1.28-1.25-1.92-3.05-1.92-5.4,0-2.03.57-3.71,1.72-5.04,1.15-1.33,2.61-2.41,4.4-3.24,1.79-.83,3.81-1.45,6.08-1.88,2.27-.43,4.52-.73,6.76-.92,2.24-.19,4.37-.28,6.4-.28h4.96Z"/><path class="cls-1" d="M114.78,36.98c3.68,0,7.09.13,10.24.4,3.15.27,5.88.76,8.2,1.48,2.32.72,4.15,1.75,5.48,3.08,1.33,1.33,2,3.04,2,5.12s-.36,3.56-1.08,4.76c-.72,1.2-1.68,2.15-2.88,2.84-1.2.69-2.56,1.2-4.08,1.52-1.52.32-3.07.61-4.64.88-1.57.27-3.11.56-4.6.88-1.49.32-2.8.83-3.92,1.52-.48.27-.96.65-1.44,1.16-.48.51-.72,1.05-.72,1.64s.17,1.05.52,1.4c.35.35.76.61,1.24.8.48.19,1,.31,1.56.36.56.05,1.05.08,1.48.08,1.39,0,2.88-.05,4.48-.16,1.6-.11,3.07.19,4.4.88.8.43,1.67,1.04,2.6,1.84.93.8,1.4,1.73,1.4,2.8,0,1.12-.41,2-1.24,2.64-.83.64-1.87,1.16-3.12,1.56-1.25.4-2.6.75-4.04,1.04-1.44.29-2.79.61-4.04.96-1.25.35-2.29.79-3.12,1.32-.83.53-1.24,1.28-1.24,2.24,0,1.65.59,2.81,1.76,3.48,1.17.67,2.45,1,3.84,1,1.28,0,2.55-.11,3.8-.32,1.25-.21,2.49-.44,3.72-.68,1.23-.24,2.47-.45,3.72-.64,1.25-.19,2.52-.28,3.8-.28,2.08,0,3.77.33,5.08,1,1.31.67,2.33,1.59,3.08,2.76.75,1.17,1.25,2.55,1.52,4.12.27,1.57.4,3.29.4,5.16,0,4.43-1,7.95-3,10.56-2,2.61-4.56,4.61-7.68,6-3.12,1.39-6.53,2.28-10.24,2.68-3.71.4-7.29.6-10.76.6-3.04,0-5.96-.27-8.76-.8-2.8-.53-5.28-1.44-7.44-2.72-2.16-1.28-3.88-3-5.16-5.16s-1.92-4.89-1.92-8.2c0-2.29.4-4.36,1.2-6.2.8-1.84,1.67-3.64,2.6-5.4.93-1.76,1.8-3.59,2.6-5.48.8-1.89,1.2-4.04,1.2-6.44,0-2.72-.25-5.15-.76-7.28-.51-2.13-1.05-4.13-1.64-6-.59-1.87-1.13-3.72-1.64-5.56-.51-1.84-.76-3.8-.76-5.88,0-2.45.52-4.52,1.56-6.2,1.04-1.68,2.41-3.05,4.12-4.12,1.71-1.07,3.64-1.84,5.8-2.32,2.16-.48,4.33-.72,6.52-.72Z"/><path class="cls-1" d="M170.7,38.58c2.08,0,3.81.55,5.2,1.64,1.39,1.09,2.55,2.45,3.48,4.08.93,1.63,1.72,3.39,2.36,5.28.64,1.89,1.24,3.65,1.8,5.28.56,1.63,1.13,2.99,1.72,4.08.59,1.09,1.33,1.64,2.24,1.64.69,0,1.36-.53,2-1.6.64-1.07,1.31-2.41,2-4.04.69-1.63,1.47-3.39,2.32-5.28.85-1.89,1.85-3.65,3-5.28,1.15-1.63,2.48-2.97,4-4.04,1.52-1.07,3.32-1.6,5.4-1.6s3.71.39,5.04,1.16c1.33.77,2.37,1.88,3.12,3.32.75,1.44,1.27,3.21,1.56,5.32.29,2.11.44,4.49.44,7.16,0,1.81.36,3.96,1.08,6.44.72,2.48,1.51,5.16,2.36,8.04.85,2.88,1.64,5.92,2.36,9.12.72,3.2,1.08,6.43,1.08,9.68,0,4.37-.37,8.03-1.12,10.96-.75,2.93-1.77,5.29-3.08,7.08-1.31,1.79-2.85,3.05-4.64,3.8-1.79.75-3.75,1.12-5.88,1.12s-4.2-.37-6.04-1.12c-1.84-.75-3.41-1.79-4.72-3.12-1.31-1.33-2.32-2.93-3.04-4.8s-1.08-3.95-1.08-6.24c0-3.09.27-5.65.8-7.68.53-2.03,1.13-3.85,1.8-5.48.67-1.63,1.27-3.21,1.8-4.76.53-1.55.8-3.41.8-5.6,0-1.23-.2-2.19-.6-2.88-.4-.69-.92-1.04-1.56-1.04-.59,0-1.08.45-1.48,1.36-.4.91-.76,2.04-1.08,3.4-.32,1.36-.64,2.84-.96,4.44-.32,1.6-.73,3.08-1.24,4.44-.51,1.36-1.15,2.49-1.92,3.4-.77.91-1.75,1.36-2.92,1.36s-2.16-.45-2.96-1.36c-.8-.91-1.49-2.04-2.08-3.4-.59-1.36-1.08-2.84-1.48-4.44s-.77-3.08-1.12-4.44c-.35-1.36-.68-2.49-1-3.4-.32-.91-.69-1.36-1.12-1.36-.53,0-.97.24-1.32.72-.35.48-.61,1.07-.8,1.76-.19.69-.31,1.44-.36,2.24-.05.8-.08,1.49-.08,2.08,0,2.13.37,4.07,1.12,5.8.75,1.73,1.59,3.43,2.52,5.08.93,1.65,1.77,3.32,2.52,5,.75,1.68,1.12,3.56,1.12,5.64s-.27,4.09-.8,6.04c-.53,1.95-1.48,3.65-2.84,5.12-1.36,1.47-3.21,2.65-5.56,3.56-2.35.91-5.31,1.36-8.88,1.36-2.29,0-4.28-.53-5.96-1.6-1.68-1.07-3.04-2.4-4.08-4-1.04-1.6-1.81-3.33-2.32-5.2-.51-1.87-.76-3.63-.76-5.28,0-3.89.31-7.64.92-11.24.61-3.6,1.29-7.21,2.04-10.84.75-3.63,1.43-7.35,2.04-11.16.61-3.81.92-7.88.92-12.2,0-1.92.31-3.69.92-5.32.61-1.63,1.51-3.05,2.68-4.28,1.17-1.23,2.63-2.19,4.36-2.88,1.73-.69,3.72-1.04,5.96-1.04Z"/><path class="cls-1" d="M225.02,99.79c0-1.87.44-3.69,1.32-5.48.88-1.79,1.95-3.53,3.2-5.24,1.25-1.71,2.59-3.33,4-4.88,1.41-1.55,2.63-3.01,3.64-4.4,1.65-2.19,2.89-4.36,3.72-6.52.83-2.16,1.43-4.28,1.8-6.36.37-2.08.6-4.09.68-6.04.08-1.95.17-3.8.28-5.56.11-1.76.31-3.39.6-4.88.29-1.49.87-2.83,1.72-4,.96-1.33,2.09-2.45,3.4-3.36,1.31-.91,2.72-1.65,4.24-2.24,1.52-.59,3.09-1.01,4.72-1.28,1.63-.27,3.24-.4,4.84-.4,2.35,0,4.52.32,6.52.96,2,.64,3.75,1.89,5.24,3.76.75.91,1.4,2.19,1.96,3.84.56,1.65,1.12,3.41,1.68,5.28.56,1.87,1.15,3.73,1.76,5.6.61,1.87,1.29,3.47,2.04,4.8,1.12,1.92,2.32,3.64,3.6,5.16,1.28,1.52,2.56,2.99,3.84,4.4s2.52,2.83,3.72,4.24c1.2,1.41,2.25,2.93,3.16,4.56.91,1.63,1.64,3.43,2.2,5.4.56,1.97.84,4.24.84,6.8,0,2.29-.29,4.43-.88,6.4-.59,1.97-1.48,3.65-2.68,5.04-1.2,1.39-2.72,2.48-4.56,3.28s-3.99,1.2-6.44,1.2c-3.09,0-5.68-.57-7.76-1.72-2.08-1.15-3.79-2.57-5.12-4.28-1.33-1.71-2.41-3.55-3.24-5.52-.83-1.97-1.57-3.81-2.24-5.52-.67-1.71-1.33-3.13-2-4.28-.67-1.15-1.51-1.72-2.52-1.72-.21,0-.44.03-.68.08-.24.05-.44.16-.6.32-1.44,1.07-2.43,2.48-2.96,4.24-.53,1.76-.91,3.64-1.12,5.64-.21,2-.43,4.03-.64,6.08-.21,2.05-.77,3.89-1.68,5.52-.91,1.63-2.29,2.96-4.16,4s-4.53,1.56-8,1.56c-5.49,0-9.77-1.2-12.84-3.6-3.07-2.4-4.6-6.03-4.6-10.88ZM256.54,68.98c0,.8.2,1.49.6,2.08.4.59.92,1.05,1.56,1.4.64.35,1.33.61,2.08.8.75.19,1.47.28,2.16.28.64,0,1.35-.08,2.12-.24.77-.16,1.49-.43,2.16-.8.67-.37,1.21-.83,1.64-1.36.43-.53.64-1.2.64-2,0-.75-.17-1.52-.52-2.32-.35-.8-.83-1.55-1.44-2.24-.61-.69-1.33-1.25-2.16-1.68-.83-.43-1.69-.64-2.6-.64-.96,0-1.81.21-2.56.64-.75.43-1.4.97-1.96,1.64-.56.67-.99,1.39-1.28,2.16-.29.77-.44,1.53-.44,2.28Z"/><path class="cls-1" d="M382.14,46.5c0,1.33-.19,2.4-.56,3.2-.37.8-.89,1.4-1.56,1.8-.67.4-1.47.65-2.4.76-.93.11-1.99.16-3.16.16l-3.92-.08c-1.07,0-2.11-.07-3.12-.2-1.01-.13-2.05-.28-3.12-.44l-3.12-.56c-1.07-.16-2.11-.31-3.12-.44-1.01-.13-2.05-.2-3.12-.2-.21,0-.45.12-.72.36-.27.24-.51.52-.72.84-.21.32-.39.67-.52,1.04-.13.37-.2.69-.2.96,0,.69.13,1.23.4,1.6.27.37.6.65,1,.84.4.19.87.29,1.4.32.53.03,1.07.04,1.6.04,1.07,0,2.28-.19,3.64-.56,1.36-.37,3.08-.56,5.16-.56,2.67,0,5.12.57,7.36,1.72,2.24,1.15,4.19,2.72,5.84,4.72s2.93,4.32,3.84,6.96c.91,2.64,1.36,5.45,1.36,8.44,0,3.95-.8,7.51-2.4,10.68-1.6,3.17-3.71,5.88-6.32,8.12-2.61,2.24-5.6,3.96-8.96,5.16s-6.8,1.8-10.32,1.8c-4.05,0-7.49-.39-10.32-1.16-2.83-.77-5.12-1.87-6.88-3.28-1.76-1.41-3.04-3.13-3.84-5.16-.8-2.03-1.2-4.29-1.2-6.8,0-1.92.2-3.72.6-5.4.4-1.68.95-3.15,1.64-4.4.69-1.25,1.53-2.24,2.52-2.96.99-.72,2.04-1.08,3.16-1.08,1.28,0,2.37.11,3.28.32.91.21,1.81.47,2.72.76.91.29,1.89.55,2.96.76,1.07.21,2.4.32,4,.32,1.23,0,2.31-.31,3.24-.92.93-.61,1.4-1.67,1.4-3.16s-.47-2.51-1.4-3.2c-.93-.69-1.99-1.04-3.16-1.04-2.03,0-4,.23-5.92.68-1.92.45-3.87.68-5.84.68-3.09,0-5.63-1.29-7.6-3.88-1.97-2.59-2.96-6.25-2.96-11,0-2.88.55-5.28,1.64-7.2,1.09-1.92,2.68-3.47,4.76-4.64,2.08-1.17,4.63-2,7.64-2.48,3.01-.48,6.44-.72,10.28-.72,1.39,0,3.11.03,5.16.08,2.05.05,4.16.2,6.32.44s4.24.64,6.24,1.2c2,.56,3.64,1.37,4.92,2.44.85.69,1.47,1.32,1.84,1.88.37.56.56,1.37.56,2.44Z"/></svg>