<?xml version="1.0" encoding="UTF-8"?><svg id="Layer_1" xmlns="http://www.w3.org/2000/svg" width="438.5" height="176.5" viewBox="0 0 438.5 176.5"><defs><style>.cls-1{fill:#000;stroke-width:0px;}.cls-2{fill:#ff910a;stroke:#000;stroke-miterlimit:10;}</style></defs><rect class="cls-2" x="21" y="23" width="403" height="129" rx="12" ry="12"/><path class="cls-1" d="M68.9,46.72c1.6,0,3.37.03,5.33.08,1.96.05,3.93.17,5.91.36,1.98.19,3.91.49,5.79.92,1.87.43,3.55,1.01,5.04,1.76,1.82.96,3.13,2.04,3.93,3.24.8,1.2,1.2,2.81,1.2,4.84,0,2.29-.45,4.19-1.36,5.68-.91,1.49-2.66,2.24-5.25,2.24-1.21,0-2.27-.16-3.18-.48-.91-.32-1.74-.68-2.48-1.08-.74-.4-1.46-.76-2.15-1.08-.69-.32-1.42-.48-2.19-.48-.66,0-1.2.23-1.61.68-.41.45-.74,1.01-.99,1.68s-.41,1.4-.5,2.2c-.08.8-.12,1.55-.12,2.24,0,3.2.52,6.31,1.57,9.32,1.05,3.01,2.2,6.03,3.47,9.04,1.27,3.01,2.42,6.03,3.47,9.04,1.05,3.01,1.57,6.09,1.57,9.24,0,2.56-.52,4.8-1.57,6.72s-2.44,3.52-4.17,4.8-3.72,2.23-5.95,2.84c-2.23.61-4.53.92-6.9.92s-4.68-.31-6.94-.92c-2.26-.61-4.27-1.56-6.03-2.84-1.76-1.28-3.18-2.88-4.26-4.8-1.08-1.92-1.64-4.16-1.7-6.72v-.32c0-3.15.51-6.21,1.53-9.2,1.02-2.99,2.15-5.97,3.39-8.96,1.24-2.99,2.37-5.99,3.39-9,1.02-3.01,1.53-6.09,1.53-9.24,0-.91.01-1.79.04-2.64.03-.85-.04-1.63-.21-2.32-.17-.69-.51-1.24-1.03-1.64-.52-.4-1.34-.6-2.44-.6-.88,0-1.71.16-2.48.48s-1.56.68-2.35,1.08c-.8.4-1.61.76-2.44,1.08s-1.74.48-2.73.48c-2.31,0-4.13-.63-5.46-1.88-1.32-1.25-1.98-3.05-1.98-5.4,0-2.03.59-3.71,1.78-5.04,1.18-1.33,2.7-2.41,4.55-3.24,1.84-.83,3.94-1.45,6.28-1.88,2.34-.43,4.67-.73,6.98-.92,2.31-.19,4.52-.28,6.61-.28h5.12Z"/><path class="cls-1" d="M117.41,46.24c3.8,0,7.33.13,10.58.4,3.25.27,6.07.76,8.47,1.48,2.4.72,4.28,1.75,5.66,3.08,1.38,1.33,2.07,3.04,2.07,5.12s-.37,3.56-1.12,4.76c-.74,1.2-1.73,2.15-2.97,2.84-1.24.69-2.64,1.2-4.21,1.52-1.57.32-3.17.61-4.79.88-1.63.27-3.21.56-4.75.88-1.54.32-2.89.83-4.05,1.52-.5.27-.99.65-1.49,1.16-.5.51-.74,1.05-.74,1.64s.18,1.05.54,1.4c.36.35.79.61,1.28.8.5.19,1.03.31,1.61.36.58.05,1.09.08,1.53.08,1.43,0,2.98-.05,4.63-.16,1.65-.11,3.17.19,4.55.88.83.43,1.72,1.04,2.69,1.84.96.8,1.45,1.73,1.45,2.8,0,1.12-.43,2-1.28,2.64-.85.64-1.93,1.16-3.22,1.56-1.29.4-2.69.75-4.17,1.04-1.49.29-2.88.61-4.17.96-1.29.35-2.37.79-3.22,1.32-.86.53-1.28,1.28-1.28,2.24,0,1.65.61,2.81,1.82,3.48,1.21.67,2.53,1,3.97,1,1.32,0,2.63-.11,3.93-.32,1.29-.21,2.58-.44,3.84-.68,1.27-.24,2.55-.45,3.84-.64,1.29-.19,2.6-.28,3.93-.28,2.15,0,3.9.33,5.25,1,1.35.67,2.41,1.59,3.18,2.76.77,1.17,1.29,2.55,1.57,4.12.27,1.57.41,3.29.41,5.16,0,4.43-1.03,7.95-3.1,10.56-2.07,2.61-4.71,4.61-7.93,6-3.22,1.39-6.75,2.28-10.58,2.68-3.83.4-7.53.6-11.12.6-3.14,0-6.16-.27-9.05-.8-2.89-.53-5.46-1.44-7.69-2.72-2.23-1.28-4.01-3-5.33-5.16s-1.98-4.89-1.98-8.2c0-2.29.41-4.36,1.24-6.2s1.72-3.64,2.69-5.4c.96-1.76,1.86-3.59,2.69-5.48.83-1.89,1.24-4.04,1.24-6.44,0-2.72-.26-5.15-.78-7.28-.52-2.13-1.09-4.13-1.69-6-.61-1.87-1.17-3.72-1.69-5.56-.52-1.84-.79-3.8-.79-5.88,0-2.45.54-4.52,1.61-6.2,1.08-1.68,2.49-3.05,4.26-4.12,1.76-1.07,3.76-1.84,5.99-2.32,2.23-.48,4.47-.72,6.74-.72Z"/><path class="cls-1" d="M175.18,47.84c2.15,0,3.94.55,5.37,1.64,1.43,1.09,2.63,2.45,3.6,4.08.96,1.63,1.78,3.39,2.44,5.28.66,1.89,1.28,3.65,1.86,5.28.58,1.63,1.17,2.99,1.78,4.08.61,1.09,1.38,1.64,2.31,1.64.71,0,1.4-.53,2.07-1.6.66-1.07,1.35-2.41,2.07-4.04.71-1.63,1.51-3.39,2.4-5.28.88-1.89,1.91-3.65,3.1-5.28,1.18-1.63,2.56-2.97,4.13-4.04,1.57-1.07,3.43-1.6,5.58-1.6s3.83.39,5.21,1.16c1.38.77,2.45,1.88,3.22,3.32.77,1.44,1.31,3.21,1.61,5.32.3,2.11.46,4.49.46,7.16,0,1.81.37,3.96,1.12,6.44.74,2.48,1.56,5.16,2.44,8.04s1.7,5.92,2.44,9.12c.74,3.2,1.12,6.43,1.12,9.68,0,4.37-.39,8.03-1.16,10.96-.77,2.93-1.83,5.29-3.18,7.08s-2.95,3.05-4.79,3.8c-1.85.75-3.87,1.12-6.07,1.12s-4.34-.37-6.24-1.12c-1.9-.75-3.53-1.79-4.88-3.12-1.35-1.33-2.4-2.93-3.14-4.8-.74-1.87-1.12-3.95-1.12-6.24,0-3.09.28-5.65.83-7.68.55-2.03,1.17-3.85,1.86-5.48.69-1.63,1.31-3.21,1.86-4.76.55-1.55.83-3.41.83-5.6,0-1.23-.21-2.19-.62-2.88-.41-.69-.95-1.04-1.61-1.04-.61,0-1.12.45-1.53,1.36-.41.91-.79,2.04-1.12,3.4-.33,1.36-.66,2.84-.99,4.44-.33,1.6-.76,3.08-1.28,4.44-.52,1.36-1.19,2.49-1.98,3.4-.8.91-1.81,1.36-3.02,1.36s-2.23-.45-3.06-1.36c-.83-.91-1.54-2.04-2.15-3.4-.61-1.36-1.12-2.84-1.53-4.44-.41-1.6-.8-3.08-1.16-4.44-.36-1.36-.7-2.49-1.03-3.4-.33-.91-.72-1.36-1.16-1.36-.55,0-1.01.24-1.36.72-.36.48-.63,1.07-.83,1.76-.19.69-.32,1.44-.37,2.24-.05.8-.08,1.49-.08,2.08,0,2.13.38,4.07,1.16,5.8.77,1.73,1.64,3.43,2.6,5.08.96,1.65,1.83,3.32,2.6,5,.77,1.68,1.16,3.56,1.16,5.64s-.28,4.09-.83,6.04c-.55,1.95-1.53,3.65-2.93,5.12-1.4,1.47-3.32,2.65-5.74,3.56-2.42.91-5.48,1.36-9.17,1.36-2.37,0-4.42-.53-6.16-1.6-1.74-1.07-3.14-2.4-4.22-4-1.07-1.6-1.87-3.33-2.4-5.2-.52-1.87-.79-3.63-.79-5.28,0-3.89.32-7.64.95-11.24.63-3.6,1.34-7.21,2.11-10.84.77-3.63,1.47-7.35,2.11-11.16.63-3.81.95-7.88.95-12.2,0-1.92.32-3.69.95-5.32.63-1.63,1.56-3.05,2.77-4.28,1.21-1.23,2.71-2.19,4.5-2.88,1.79-.69,3.84-1.04,6.16-1.04Z"/><path class="cls-1" d="M231.3,109.04c0-1.87.45-3.69,1.36-5.48.91-1.79,2.01-3.53,3.31-5.24,1.29-1.71,2.67-3.33,4.13-4.88,1.46-1.55,2.71-3.01,3.76-4.4,1.71-2.19,2.99-4.36,3.84-6.52.85-2.16,1.47-4.28,1.86-6.36.38-2.08.62-4.09.7-6.04.08-1.95.18-3.8.29-5.56.11-1.76.32-3.39.62-4.88.3-1.49.89-2.83,1.78-4,.99-1.33,2.16-2.45,3.51-3.36,1.35-.91,2.81-1.65,4.38-2.24s3.2-1.01,4.88-1.28c1.68-.27,3.35-.4,5-.4,2.42,0,4.67.32,6.74.96,2.07.64,3.87,1.89,5.41,3.76.77.91,1.45,2.19,2.03,3.84.58,1.65,1.16,3.41,1.74,5.28.58,1.87,1.18,3.73,1.82,5.6.63,1.87,1.33,3.47,2.11,4.8,1.16,1.92,2.4,3.64,3.72,5.16,1.32,1.52,2.64,2.99,3.97,4.4s2.6,2.83,3.84,4.24c1.24,1.41,2.33,2.93,3.26,4.56.94,1.63,1.69,3.43,2.27,5.4.58,1.97.87,4.24.87,6.8,0,2.29-.3,4.43-.91,6.4-.61,1.97-1.53,3.65-2.77,5.04-1.24,1.39-2.81,2.48-4.71,3.28s-4.12,1.2-6.65,1.2c-3.2,0-5.87-.57-8.02-1.72-2.15-1.15-3.91-2.57-5.29-4.28-1.38-1.71-2.49-3.55-3.35-5.52-.85-1.97-1.62-3.81-2.31-5.52s-1.38-3.13-2.07-4.28c-.69-1.15-1.56-1.72-2.6-1.72-.22,0-.45.03-.7.08-.25.05-.46.16-.62.32-1.49,1.07-2.51,2.48-3.06,4.24-.55,1.76-.94,3.64-1.16,5.64-.22,2-.44,4.03-.66,6.08-.22,2.05-.8,3.89-1.74,5.52-.94,1.63-2.37,2.96-4.3,4-1.93,1.04-4.68,1.56-8.27,1.56-5.67,0-10.1-1.2-13.26-3.6-3.17-2.4-4.75-6.03-4.75-10.88ZM263.86,78.24c0,.8.21,1.49.62,2.08.41.59.95,1.05,1.61,1.4.66.35,1.38.61,2.15.8.77.19,1.51.28,2.23.28.66,0,1.39-.08,2.19-.24.8-.16,1.54-.43,2.23-.8.69-.37,1.25-.83,1.69-1.36.44-.53.66-1.2.66-2,0-.75-.18-1.52-.54-2.32-.36-.8-.86-1.55-1.49-2.24-.63-.69-1.38-1.25-2.23-1.68-.86-.43-1.75-.64-2.69-.64-.99,0-1.87.21-2.65.64s-1.45.97-2.02,1.64c-.58.67-1.02,1.39-1.32,2.16-.3.77-.45,1.53-.45,2.28Z"/><path class="cls-1" d="M389.73,72.56c.66,0,1.25-.07,1.78-.2.52-.13,1.02-.27,1.49-.4.47-.13.95-.27,1.45-.4.5-.13,1.1-.2,1.82-.2,2.26,0,3.76.6,4.5,1.8.74,1.2,1.12,2.68,1.12,4.44,0,.91-.08,1.95-.25,3.12-.17,1.17-.47,2.28-.91,3.32-.44,1.04-1.03,1.92-1.78,2.64s-1.69,1.08-2.85,1.08c-.61,0-1.12-.04-1.53-.12s-.81-.17-1.2-.28c-.39-.11-.79-.2-1.2-.28-.41-.08-.92-.12-1.53-.12-.28,0-.54.04-.79.12s-.37.28-.37.6c0,.53.19,1.37.58,2.52.38,1.15.83,2.4,1.32,3.76.5,1.36.94,2.72,1.32,4.08.39,1.36.58,2.55.58,3.56,0,1.76-.4,3.32-1.2,4.68-.8,1.36-1.86,2.52-3.18,3.48s-2.85,1.68-4.59,2.16c-1.73.48-3.51.72-5.33.72-4.52,0-7.98-.85-10.37-2.56-2.4-1.71-3.59-4.08-3.59-7.12,0-.96.26-2.07.79-3.32.52-1.25,1.09-2.52,1.69-3.8.61-1.28,1.17-2.53,1.69-3.76.52-1.23.79-2.32.79-3.28,0-.75-.18-1.24-.54-1.48-.36-.24-.92-.36-1.69-.36-1.32,0-2.62.09-3.88.28-1.27.19-2.52.4-3.76.64s-2.51.45-3.8.64c-1.3.19-2.63.28-4.01.28s-2.58-.16-3.76-.48c-1.19-.32-2.23-.83-3.14-1.52-.91-.69-1.63-1.59-2.15-2.68-.52-1.09-.79-2.39-.79-3.88s.23-2.81.7-3.8c.47-.99.98-2.23,1.53-3.72,1.21-3.15,2.74-6.2,4.59-9.16,1.85-2.96,3.95-5.57,6.32-7.84,2.37-2.27,4.94-4.09,7.73-5.48,2.78-1.39,5.72-2.08,8.8-2.08,3.25,0,5.92.31,8.02.92,2.09.61,3.75,1.48,4.96,2.6s2.04,2.44,2.48,3.96c.44,1.52.66,3.19.66,5,0,1.55-.04,3.08-.12,4.6-.08,1.52-.12,3.05-.12,4.6,0,.75.05,1.39.17,1.92.11.53.63.8,1.57.8ZM362.63,71.92c.05.59.34,1,.87,1.24.52.24,1.17.36,1.94.36s1.56-.13,2.36-.4c.8-.27,1.39-.64,1.78-1.12.44-.53.79-1.27,1.03-2.2.25-.93.36-1.85.33-2.76-.03-.91-.19-1.69-.5-2.36-.3-.67-.81-1-1.53-1-.88,0-1.72.27-2.52.8-.8.53-1.49,1.21-2.07,2.04-.58.83-1.02,1.72-1.32,2.68-.3.96-.43,1.87-.37,2.72Z"/></svg>