<?xml version="1.0" encoding="UTF-8"?><svg id="Layer_1" xmlns="http://www.w3.org/2000/svg" width="422" height="154" viewBox="0 0 422 154"><defs><style>.cls-1{fill:#000;stroke-width:0px;}.cls-2{fill:#ff910a;stroke:#000;stroke-miterlimit:10;}</style></defs><rect class="cls-2" x="6.5" y="11.5" width="403" height="129" rx="12" ry="12"/><path class="cls-1" d="M85.87,63.5c0,1.2.13,2.61.41,4.23.27,1.62.58,3.44.94,5.44.36,2.01.68,4.26.95,6.75.27,2.49.41,5.18.41,8.06,0,3.3-.67,6.41-2.03,9.31-1.35,2.91-3.36,5.46-6.03,7.65-2.67,2.19-6,3.93-9.99,5.22-3.99,1.29-8.66,1.94-14,1.94-5.04,0-9.45-.6-13.23-1.8-3.78-1.2-6.93-2.9-9.45-5.08-2.52-2.19-4.41-4.86-5.67-8.01-1.26-3.15-1.89-6.64-1.89-10.48s.25-7.75.76-11.39c.51-3.63.77-6.76.77-9.4,0-1.74-.12-3.48-.36-5.22-.24-1.74-.5-3.49-.76-5.27-.27-1.77-.53-3.57-.77-5.4-.24-1.83-.36-3.7-.36-5.62,0-2.46.27-4.77.81-6.93.54-2.16,1.4-4.06,2.57-5.72,1.17-1.65,2.64-2.95,4.41-3.92,1.77-.96,3.85-1.44,6.25-1.44,4.32,0,7.66,1.41,10.04,4.23,2.37,2.82,3.55,6.72,3.55,11.7,0,2.16-.18,4.22-.54,6.17-.36,1.95-.76,3.78-1.21,5.49s-.87,3.32-1.26,4.81c-.39,1.5-.58,2.85-.58,4.05,0,1.26.13,2.61.4,4.05.27,1.44.72,2.78,1.35,4,.63,1.23,1.42,2.27,2.38,3.11.96.84,2.16,1.26,3.6,1.26,1.26,0,2.4-.31,3.42-.94,1.02-.63,1.89-1.5,2.61-2.61.72-1.11,1.26-2.38,1.62-3.82s.54-2.97.54-4.59-.17-3.19-.5-4.72c-.33-1.53-.69-3.06-1.08-4.59-.39-1.53-.75-3.09-1.08-4.68-.33-1.59-.5-3.29-.5-5.08,0-2.04.23-3.93.67-5.67.45-1.74,1.2-3.24,2.25-4.5,1.05-1.26,2.39-2.25,4.01-2.97,1.62-.72,3.6-1.08,5.94-1.08,1.74,0,3.39.31,4.95.94,1.56.63,2.91,1.55,4.05,2.75,1.14,1.2,2.04,2.63,2.7,4.27.66,1.65.99,3.53.99,5.62s-.11,4.1-.32,5.99c-.21,1.89-.45,3.66-.72,5.31-.27,1.65-.51,3.19-.72,4.63-.21,1.44-.32,2.76-.32,3.96Z"/><path class="cls-1" d="M125.47,85.19c-.36,0-.71.33-1.04.99-.33.66-.63,1.5-.9,2.52-.27,1.02-.54,2.16-.81,3.42-.27,1.26-.56,2.51-.86,3.73-.3,1.23-.6,2.39-.9,3.46-.3,1.08-.63,1.92-.99,2.52-1.38,2.34-3.23,4.11-5.54,5.31-2.31,1.2-4.82,1.8-7.51,1.8-1.74,0-3.45-.33-5.13-.99-1.68-.66-3.2-1.57-4.55-2.75-1.35-1.17-2.45-2.54-3.28-4.09-.84-1.56-1.32-3.24-1.44-5.04v-.54c0-1.92.43-3.84,1.3-5.76.87-1.92,1.95-3.81,3.24-5.67,1.29-1.86,2.68-3.69,4.19-5.49,1.5-1.8,2.89-3.56,4.18-5.27,1.29-1.71,2.37-3.38,3.24-5,.87-1.62,1.3-3.18,1.3-4.68,0-1.74-.38-3.22-1.12-4.46-.75-1.23-1.7-2.32-2.83-3.29-1.14-.96-2.37-1.89-3.69-2.79-1.32-.9-2.55-1.89-3.69-2.97-1.14-1.08-2.09-2.32-2.83-3.74-.75-1.41-1.12-3.1-1.12-5.08,0-1.38.36-2.74,1.08-4.09s1.67-2.56,2.83-3.65,2.46-1.95,3.87-2.61c1.41-.66,2.8-.99,4.18-.99,2.04,0,3.76.54,5.17,1.62,1.41,1.08,2.61,2.43,3.6,4.05s1.86,3.38,2.61,5.27c.75,1.89,1.47,3.65,2.16,5.27.69,1.62,1.44,2.97,2.25,4.05.81,1.08,1.79,1.62,2.92,1.62.84,0,1.62-.55,2.34-1.67.72-1.11,1.45-2.52,2.21-4.23.75-1.71,1.56-3.54,2.43-5.49.87-1.95,1.87-3.78,3.01-5.49,1.14-1.71,2.43-3.12,3.87-4.23,1.44-1.11,3.09-1.67,4.95-1.67,1.2,0,2.38.18,3.55.54,1.17.36,2.25.89,3.24,1.57.99.69,1.78,1.53,2.38,2.52.6.99.9,2.15.9,3.47,0,2.22-.35,4.2-1.04,5.94-.69,1.74-1.56,3.33-2.61,4.77s-2.17,2.78-3.38,4c-1.2,1.23-2.33,2.43-3.38,3.6s-1.92,2.38-2.61,3.65c-.69,1.26-1.04,2.64-1.04,4.14,0,.72.43,1.64,1.3,2.75.87,1.11,1.95,2.37,3.24,3.78,1.29,1.41,2.68,2.96,4.18,4.63,1.5,1.68,2.89,3.46,4.19,5.35,1.29,1.89,2.37,3.89,3.24,5.98.87,2.1,1.3,4.26,1.3,6.48,0,5.7-1.35,9.95-4.05,12.74-2.7,2.79-6.93,4.19-12.69,4.19-2.58,0-5.04-.71-7.38-2.12-2.34-1.41-3.99-3.35-4.95-5.81l-.09-.45c-.24-.66-.44-1.85-.58-3.56-.15-1.71-.32-3.46-.5-5.26-.18-1.8-.42-3.39-.72-4.77-.3-1.38-.72-2.07-1.26-2.07Z"/><path class="cls-1" d="M236.08,26.42c1.02,0,2.12.15,3.29.45,1.17.3,2.25.75,3.24,1.35.99.6,1.81,1.35,2.47,2.25.66.9.99,1.95.99,3.15,0,.24-.02.45-.04.63-.03.18-.08.39-.13.63-.6,2.88-1.47,5.62-2.61,8.24-1.14,2.61-2.4,5.17-3.78,7.69-1.38,2.52-2.78,5.03-4.18,7.52-1.41,2.49-2.69,5.08-3.83,7.78-.96,2.34-1.88,5.04-2.75,8.1-.87,3.06-1.77,6.17-2.7,9.31-.93,3.15-1.91,6.15-2.92,9-1.02,2.85-2.19,5.21-3.51,7.06-1.44,2.1-3.23,3.84-5.36,5.22-2.13,1.38-4.49,2.07-7.06,2.07-1.5,0-2.91-.27-4.23-.81-1.32-.54-2.46-1.29-3.42-2.25-.96-.96-1.71-2.09-2.25-3.38s-.81-2.68-.81-4.18c0-3.24.81-6.53,2.43-9.85,1.62-3.33,3.54-6.63,5.76-9.9,2.22-3.27,4.49-6.49,6.8-9.67,2.31-3.18,4.15-6.24,5.53-9.18,1.02-2.1,1.92-4.3,2.7-6.61.78-2.31,1.58-4.64,2.38-6.98.81-2.34,1.68-4.62,2.61-6.84.93-2.22,2.05-4.29,3.38-6.21,1.02-1.44,2.14-2.57,3.38-3.38,1.23-.81,2.77-1.22,4.63-1.22Z"/><path class="cls-1" d="M344.79,63.5c0,1.2.13,2.61.41,4.23.27,1.62.58,3.44.94,5.44.36,2.01.68,4.26.95,6.75.27,2.49.41,5.18.41,8.06,0,3.3-.67,6.41-2.03,9.31-1.35,2.91-3.36,5.46-6.03,7.65-2.67,2.19-6,3.93-9.99,5.22-3.99,1.29-8.66,1.94-14,1.94-5.04,0-9.45-.6-13.23-1.8-3.78-1.2-6.93-2.9-9.45-5.08-2.52-2.19-4.41-4.86-5.67-8.01-1.26-3.15-1.89-6.64-1.89-10.48s.25-7.75.76-11.39c.51-3.63.77-6.76.77-9.4,0-1.74-.12-3.48-.36-5.22-.24-1.74-.5-3.49-.76-5.27-.27-1.77-.53-3.57-.77-5.4-.24-1.83-.36-3.7-.36-5.62,0-2.46.27-4.77.81-6.93.54-2.16,1.4-4.06,2.57-5.72,1.17-1.65,2.64-2.95,4.41-3.92,1.77-.96,3.85-1.44,6.25-1.44,4.32,0,7.66,1.41,10.04,4.23,2.37,2.82,3.55,6.72,3.55,11.7,0,2.16-.18,4.22-.54,6.17-.36,1.95-.76,3.78-1.21,5.49s-.87,3.32-1.26,4.81c-.39,1.5-.58,2.85-.58,4.05,0,1.26.13,2.61.4,4.05.27,1.44.72,2.78,1.35,4,.63,1.23,1.42,2.27,2.38,3.11.96.84,2.16,1.26,3.6,1.26,1.26,0,2.4-.31,3.42-.94,1.02-.63,1.89-1.5,2.61-2.61.72-1.11,1.26-2.38,1.62-3.82s.54-2.97.54-4.59-.17-3.19-.5-4.72c-.33-1.53-.69-3.06-1.08-4.59-.39-1.53-.75-3.09-1.08-4.68-.33-1.59-.5-3.29-.5-5.08,0-2.04.23-3.93.67-5.67.45-1.74,1.2-3.24,2.25-4.5,1.05-1.26,2.39-2.25,4.01-2.97,1.62-.72,3.6-1.08,5.94-1.08,1.74,0,3.39.31,4.95.94,1.56.63,2.91,1.55,4.05,2.75,1.14,1.2,2.04,2.63,2.7,4.27.66,1.65.99,3.53.99,5.62s-.11,4.1-.32,5.99c-.21,1.89-.45,3.66-.72,5.31-.27,1.65-.51,3.19-.72,4.63-.21,1.44-.32,2.76-.32,3.96Z"/><path class="cls-1" d="M367.56,27.32c4.26,0,7.59.92,9.99,2.75,2.4,1.83,3.6,4.37,3.6,7.6,0,1.62-.24,3.45-.72,5.49-.48,2.04-.99,4.22-1.53,6.52-.54,2.31-1.05,4.73-1.53,7.25-.48,2.52-.72,5.1-.72,7.74,0,2.88.5,5.52,1.48,7.92.99,2.4,2.08,4.77,3.29,7.11,1.2,2.34,2.29,4.74,3.29,7.2.99,2.46,1.51,5.19,1.58,8.19v.45c0,14.1-6.06,21.15-18.18,21.15-5.34,0-9.56-1.34-12.65-4-3.09-2.67-4.72-6.38-4.91-11.12v-.72c0-2.64.41-5.04,1.22-7.2.81-2.16,1.68-4.36,2.61-6.61.93-2.25,1.8-4.66,2.61-7.25.81-2.58,1.21-5.61,1.21-9.09,0-3.18-.33-5.99-.99-8.42-.66-2.43-1.39-4.69-2.21-6.79-.81-2.1-1.56-4.19-2.25-6.26-.69-2.07-1.03-4.36-1.03-6.88,0-4.8,1.36-8.5,4.09-11.12,2.73-2.61,6.64-3.92,11.75-3.92Z"/></svg>