<?xml version="1.0" encoding="UTF-8"?><svg id="Layer_1" xmlns="http://www.w3.org/2000/svg" width="438.5" height="176.5" viewBox="0 0 438.5 176.5"><defs><style>.cls-1{fill:#000;stroke-width:0px;}.cls-2{fill:#ff910a;stroke:#000;stroke-miterlimit:10;}</style></defs><rect class="cls-2" x="21" y="23" width="403" height="129" rx="12" ry="12"/><path class="cls-1" d="M36.44,64.08c0-2.7.31-5.1.93-7.22.62-2.11,1.5-3.9,2.64-5.35,1.15-1.46,2.55-2.57,4.2-3.35,1.65-.78,3.5-1.16,5.55-1.16,1.26,0,2.44.12,3.55.38,1.11.25,2.07.62,2.88,1.11.81.49,1.46,1.08,1.94,1.77.48.69.72,1.48.72,2.36,0,.98-.56,1.76-1.68,2.35-1.12.59-2.61.88-4.46.88-1.08,0-2.13.08-3.13.25-1,.17-1.88.49-2.65.97-.76.48-1.38,1.14-1.83,1.99s-.68,1.95-.68,3.31c0,.57.11,1.12.33,1.63.22.51.54.97.94,1.36.41.39.91.7,1.52.93.6.23,1.28.34,2.02.34.64,0,1.28-.08,1.92-.25.64-.17,1.22-.38,1.74-.64.52-.26.94-.56,1.26-.9.32-.33.48-.66.48-.97,0-.69-.74-1.04-2.22-1.04-.42,0-.86.02-1.31.07s-.89.07-1.31.07c-.91,0-1.57-.16-1.98-.48s-.61-.83-.61-1.52.18-1.24.54-1.65c.36-.41.81-.7,1.35-.9.54-.19,1.12-.31,1.74-.36.62-.05,1.2-.07,1.74-.07,1.87,0,3.51.1,4.9.29,1.39.19,2.56.6,3.5,1.24s1.64,1.53,2.11,2.7.7,2.75.7,4.73-.36,3.95-1.07,5.75c-.72,1.8-1.71,3.38-3,4.75-1.28,1.36-2.81,2.44-4.57,3.22-1.76.79-3.71,1.18-5.83,1.18s-3.95-.44-5.55-1.31c-1.6-.87-2.95-2.09-4.03-3.65s-1.91-3.44-2.46-5.62c-.56-2.18-.83-4.58-.83-7.18Z"/><path class="cls-1" d="M81.8,64.36c0,.26.24.6.72,1,.48.41,1.08.87,1.79,1.38.72.51,1.5,1.08,2.35,1.7.85.62,1.63,1.28,2.35,1.97.71.69,1.31,1.42,1.79,2.18.48.76.72,1.55.72,2.36,0,.76-.19,1.49-.57,2.17-.38.68-.88,1.28-1.48,1.81-.6.52-1.28.94-2.04,1.25-.75.31-1.5.47-2.24.47-.47,0-.94-.03-1.42-.09-.48-.06-.94-.17-1.37-.34s-.83-.39-1.18-.68c-.36-.29-.66-.66-.91-1.11-.22-.38-.41-.94-.57-1.68-.16-.74-.31-1.55-.46-2.42-.15-.87-.3-1.77-.44-2.7-.15-.93-.33-1.77-.54-2.52-.21-.75-.46-1.37-.74-1.84s-.63-.72-1.05-.72-.78.14-1.07.43c-.3.29-.44.63-.44,1.04,0,.67.16,1.3.48,1.88.32.59.67,1.16,1.04,1.72.37.56.72,1.14,1.04,1.74.32.6.48,1.25.48,1.97,0,.83-.2,1.62-.61,2.35-.41.73-.94,1.35-1.59,1.88-.65.53-1.39.94-2.22,1.24s-1.65.45-2.46.45c-1.85,0-3.34-.42-4.48-1.27s-1.73-2.17-1.78-3.96v-.29c0-.79.13-1.56.39-2.31.26-.75.54-1.5.85-2.24.31-.74.59-1.49.85-2.24.26-.75.39-1.52.39-2.31,0-1.05-.12-2.07-.35-3.06-.23-.99-.5-1.98-.79-2.97-.3-.99-.56-1.99-.8-2.99s-.35-2.03-.35-3.08c0-1.19.25-2.29.74-3.28.49-.99,1.15-1.84,1.96-2.56.81-.72,1.76-1.27,2.83-1.67,1.07-.39,2.2-.59,3.38-.59,1.55,0,3.11.23,4.68.7,1.57.47,2.97,1.15,4.2,2.04,1.23.9,2.24,2,3.02,3.31.78,1.31,1.17,2.83,1.17,4.55,0,1.29-.27,2.33-.81,3.13s-1.15,1.46-1.81,1.97c-.67.51-1.27.93-1.81,1.25s-.81.65-.81.98ZM74.03,58.13c0,.29.02.64.06,1.06s.12.81.24,1.18c.12.37.31.69.55.95.25.26.58.39,1,.39.32,0,.64-.11.96-.34.32-.23.62-.51.89-.84.27-.33.49-.69.67-1.07s.26-.73.26-1.04c0-.33-.07-.66-.2-.97-.14-.31-.32-.58-.55-.82-.24-.24-.51-.43-.81-.57-.31-.14-.62-.21-.94-.21-.64,0-1.15.25-1.54.73-.38.49-.57,1.01-.57,1.56Z"/><path class="cls-1" d="M115.47,61.17c0,.48.05,1.04.17,1.68s.24,1.37.39,2.17c.15.8.28,1.7.39,2.69.11.99.17,2.06.17,3.21,0,1.31-.28,2.55-.83,3.71-.56,1.16-1.38,2.17-2.48,3.04-1.1.87-2.47,1.56-4.11,2.08-1.64.51-3.56.77-5.75.77-2.07,0-3.88-.24-5.44-.72-1.55-.48-2.85-1.15-3.88-2.02-1.04-.87-1.81-1.93-2.33-3.19-.52-1.25-.78-2.64-.78-4.17s.1-3.09.31-4.53c.21-1.44.31-2.69.31-3.74,0-.69-.05-1.38-.15-2.08-.1-.69-.2-1.39-.31-2.09s-.22-1.42-.31-2.15c-.1-.73-.15-1.47-.15-2.24,0-.98.11-1.9.33-2.76.22-.86.57-1.62,1.05-2.27.48-.66,1.08-1.18,1.81-1.56.73-.38,1.58-.57,2.57-.57,1.78,0,3.15.56,4.13,1.68.97,1.12,1.46,2.67,1.46,4.66,0,.86-.07,1.68-.22,2.45-.15.78-.31,1.5-.5,2.18s-.36,1.32-.52,1.92c-.16.6-.24,1.13-.24,1.61,0,.5.06,1.04.17,1.61.11.57.3,1.1.55,1.59s.59.9.98,1.24c.39.33.89.5,1.48.5.52,0,.99-.13,1.41-.38.42-.25.78-.6,1.07-1.04.29-.44.52-.95.67-1.52.15-.57.22-1.18.22-1.83s-.07-1.27-.2-1.88c-.14-.61-.28-1.22-.44-1.83-.16-.61-.31-1.23-.44-1.86s-.2-1.31-.2-2.02c0-.81.09-1.56.28-2.26.19-.69.49-1.29.93-1.79.43-.5.98-.9,1.65-1.18.67-.29,1.48-.43,2.44-.43.72,0,1.39.13,2.04.38.64.25,1.2.62,1.67,1.09.47.48.84,1.04,1.11,1.7.27.66.41,1.4.41,2.24s-.04,1.63-.13,2.38-.19,1.46-.3,2.11-.21,1.27-.3,1.84c-.09.57-.13,1.1-.13,1.58Z"/><path class="cls-1" d="M123.76,47.85c1.06,0,1.89.2,2.5.61s1.05,1.11,1.35,2.11c.1.33.26.84.48,1.5.22.67.49,1.41.81,2.24s.67,1.67,1.05,2.54c.38.87.78,1.67,1.2,2.38.42.72.84,1.3,1.28,1.75.43.45.86.68,1.28.68.29,0,.55-.15.76-.45.21-.3.37-.65.48-1.06.11-.41.19-.81.24-1.22.05-.41.07-.7.07-.9,0-.64-.07-1.28-.22-1.92-.15-.63-.31-1.26-.48-1.88s-.33-1.24-.48-1.84c-.15-.61-.22-1.24-.22-1.88,0-1.43.42-2.49,1.26-3.17s1.97-1.02,3.4-1.02c.52,0,1.05.11,1.59.32s1.03.51,1.46.9.78.81,1.05,1.29c.27.48.41.99.41,1.54,0,1.65-.1,3.27-.3,4.87s-.3,3.22-.3,4.87c0,1.05.12,2.08.37,3.08.25,1,.52,2,.83,3.01s.59,2,.83,2.99c.25.99.37,2.01.37,3.06s-.11,1.99-.33,2.88c-.22.89-.57,1.67-1.04,2.33-.47.66-1.07,1.17-1.81,1.54-.74.37-1.64.56-2.7.56s-1.94-.21-2.72-.64c-.78-.43-1.43-.99-1.96-1.68-.53-.69-.93-1.48-1.2-2.36-.27-.88-.41-1.78-.41-2.69,0-.62-.12-1.4-.37-2.33-.25-.93-.56-1.84-.94-2.74-.38-.89-.81-1.66-1.29-2.29-.48-.63-.94-.95-1.39-.95-.22,0-.39.07-.52.2-.12.13-.22.3-.3.5-.07.2-.12.41-.13.63-.01.21-.02.39-.02.54,0,.65.12,1.28.37,1.9.25.62.51,1.25.8,1.9.28.64.55,1.33.8,2.06.25.73.37,1.53.37,2.42s-.14,1.67-.42,2.44c-.28.76-.68,1.43-1.2,2.01-.52.57-1.15,1.02-1.91,1.34s-1.6.48-2.53.48c-.89,0-1.71-.17-2.46-.5-.75-.33-1.41-.78-1.96-1.34-.56-.56-.99-1.22-1.31-1.97-.32-.75-.48-1.56-.48-2.42,0-1.43.13-2.84.41-4.23.27-1.38.56-2.76.87-4.14.31-1.37.6-2.75.87-4.14s.41-2.78.41-4.19c0-1.08-.12-2.12-.35-3.15-.23-1.03-.35-1.97-.35-2.83,0-1.17.41-2.05,1.24-2.65.83-.6,1.79-.9,2.9-.9Z"/><path class="cls-1" d="M153.87,46.96c2.62,0,4.96.53,7.05,1.59,2.08,1.06,3.86,2.47,5.33,4.21,1.47,1.74,2.59,3.73,3.37,5.96s1.17,4.52,1.17,6.86c0,2.17-.35,4.24-1.04,6.2s-1.68,3.68-2.98,5.17c-1.29,1.49-2.86,2.68-4.7,3.56-1.84.88-3.9,1.33-6.2,1.33-1.04,0-2.08-.11-3.14-.32s-2.02-.57-2.87-1.06c-.85-.49-1.55-1.14-2.09-1.95-.54-.81-.81-1.82-.81-3.01,0-.76.07-1.56.22-2.4.15-.84.31-1.69.5-2.56.19-.87.35-1.73.5-2.58.15-.85.22-1.65.22-2.42,0-.98-.09-1.94-.26-2.88-.17-.94-.37-1.89-.59-2.83-.22-.94-.42-1.89-.59-2.85-.17-.95-.26-1.92-.26-2.9,0-2.34.58-4.11,1.74-5.32,1.16-1.21,2.97-1.81,5.44-1.81ZM157.57,56.27c-.54,0-.97.16-1.28.47s-.54.69-.7,1.15c-.16.45-.26.94-.3,1.45-.04.51-.06.96-.06,1.34,0,.33,0,.78.02,1.33s.09,1.09.22,1.63c.14.54.35,1,.63,1.38.28.38.69.57,1.2.57s1.06-.14,1.55-.41c.49-.27.92-.64,1.3-1.09.37-.45.66-.97.87-1.56.21-.58.31-1.2.31-1.84,0-.48-.1-.97-.3-1.49s-.46-.99-.79-1.42-.73-.79-1.18-1.07c-.46-.29-.96-.43-1.5-.43Z"/><path class="cls-1" d="M171.6,53.26c0-1.03.15-1.91.46-2.65.31-.74.73-1.35,1.28-1.84.54-.49,1.19-.85,1.94-1.07.75-.23,1.56-.34,2.42-.34s1.7.12,2.44.38c.74.25,1.37.6,1.89,1.06.52.45.92.98,1.2,1.59.28.61.43,1.26.43,1.95,0,.74-.17,1.5-.5,2.29-.33.79-.7,1.62-1.11,2.49-.41.87-.78,1.8-1.11,2.78-.33.98-.5,2.03-.5,3.15,0,1.5.33,2.72,1,3.65s1.54,1.4,2.63,1.4c.81,0,1.48-.23,2-.7.52-.47,1.02-.98,1.5-1.56.48-.57,1-1.09,1.55-1.56.56-.46,1.26-.7,2.13-.7,1.31,0,2.33.59,3.05,1.77.73,1.18,1.09,2.82,1.09,4.92,0,3.84-1.26,6.7-3.77,8.58-2.52,1.87-6.18,2.81-10.99,2.81-1.53,0-2.84-.11-3.92-.34-1.08-.23-1.97-.59-2.66-1.08s-1.2-1.13-1.54-1.92-.51-1.74-.54-2.87v-.36c0-.91.07-1.85.22-2.83.15-.98.3-1.98.46-2.99s.31-2.04.46-3.06c.15-1.03.22-2.02.22-2.97s-.09-1.84-.28-2.67c-.18-.82-.38-1.63-.59-2.42-.21-.79-.41-1.58-.59-2.38s-.28-1.64-.28-2.53Z"/><path class="cls-1" d="M196.54,74.96c0-.84.2-1.65.61-2.45.41-.8.9-1.58,1.48-2.35.58-.76,1.2-1.49,1.85-2.18.65-.69,1.21-1.35,1.68-1.97.76-.98,1.34-1.95,1.72-2.92s.66-1.92.83-2.85c.17-.93.28-1.83.31-2.7.04-.87.08-1.7.13-2.49.05-.79.14-1.52.28-2.18.13-.67.4-1.27.79-1.79.44-.6.97-1.1,1.57-1.5s1.26-.74,1.96-1,1.43-.45,2.18-.57c.75-.12,1.5-.18,2.24-.18,1.11,0,2.2.18,3.27.54,1.07.36,1.91,1.03,2.5,2,.32-.62.75-1.15,1.29-1.59.54-.44,1.16-.81,1.85-1.09.69-.29,1.43-.5,2.22-.63.79-.13,1.58-.2,2.37-.2,1.7,0,3.29.06,4.75.18,1.47.12,2.74.34,3.81.66,1.07.32,1.92.78,2.54,1.38.62.6.92,1.36.92,2.29s-.17,1.59-.5,2.13c-.33.54-.78.96-1.33,1.27-.55.31-1.18.54-1.89.68-.7.14-1.42.28-2.15.39-.73.12-1.44.25-2.13.39s-1.29.37-1.81.68c-.22.12-.44.29-.67.52-.22.23-.33.47-.33.73s.08.47.24.63c.16.16.35.28.57.36.22.08.46.14.72.16.26.02.49.04.68.04.64,0,1.33-.02,2.07-.07.74-.05,1.42.08,2.04.39.37.19.77.47,1.2.82.43.36.65.78.65,1.25,0,.5-.19.9-.57,1.18-.38.29-.86.52-1.44.7-.58.18-1.2.33-1.87.47-.67.13-1.29.27-1.87.43-.58.16-1.06.35-1.44.59-.38.24-.57.57-.57,1v.18c.27.41.53.86.78,1.36.25.17.52.29.83.36s.63.11.98.11c.59,0,1.18-.05,1.76-.14.58-.09,1.15-.2,1.72-.3.57-.11,1.14-.2,1.72-.29.58-.08,1.17-.12,1.76-.12.96,0,1.74.15,2.35.45.6.3,1.08.71,1.42,1.24s.58,1.14.7,1.84c.12.71.18,1.47.18,2.31,0,1.98-.46,3.56-1.39,4.73-.92,1.17-2.11,2.06-3.55,2.69s-3.02,1.02-4.74,1.2c-1.71.18-3.37.27-4.98.27-1.18,0-2.33-.08-3.42-.23-1.1-.16-2.11-.43-3.03-.82-.92-.39-1.73-.92-2.42-1.58-.69-.66-1.2-1.47-1.52-2.45-.64-.76-1.16-1.59-1.55-2.49-.39-.89-.75-1.73-1.05-2.51-.31-.78-.61-1.43-.91-1.95-.3-.52-.69-.79-1.18-.79-.1,0-.2.01-.31.04-.11.02-.2.07-.28.14-.67.48-1.12,1.11-1.37,1.9s-.42,1.63-.52,2.52c-.1.9-.2,1.8-.29,2.72-.1.92-.36,1.74-.78,2.47-.42.73-1.06,1.33-1.92,1.79s-2.1.7-3.7.7c-2.54,0-4.52-.54-5.94-1.61-1.42-1.08-2.13-2.7-2.13-4.87ZM211.11,61.17c0,.36.09.67.28.93.18.26.42.47.72.63.3.16.62.28.96.36.34.08.68.13,1,.13.3,0,.62-.04.98-.11.36-.07.69-.19,1-.36.31-.17.56-.37.76-.61.2-.24.3-.54.3-.89,0-.33-.08-.68-.24-1.04-.16-.36-.38-.69-.67-1-.28-.31-.62-.56-1-.75-.38-.19-.78-.29-1.2-.29-.44,0-.84.1-1.18.29s-.65.44-.91.73c-.26.3-.46.62-.59.97-.14.35-.2.69-.2,1.02Z"/><path class="cls-1" d="M243.3,64.08c0-2.7.31-5.1.92-7.22s1.5-3.9,2.65-5.35c1.15-1.46,2.55-2.57,4.2-3.35,1.65-.78,3.5-1.16,5.55-1.16,1.26,0,2.44.12,3.55.38s2.07.62,2.89,1.11,1.46,1.08,1.94,1.77c.48.69.72,1.48.72,2.36,0,.98-.56,1.76-1.68,2.35-1.12.59-2.61.88-4.46.88-1.08,0-2.13.08-3.13.25-1,.17-1.88.49-2.65.97-.76.48-1.38,1.14-1.83,1.99-.46.85-.68,1.95-.68,3.31,0,.57.11,1.12.33,1.63.22.51.54.97.94,1.36.41.39.91.7,1.52.93.6.23,1.28.34,2.02.34.64,0,1.28-.08,1.92-.25.64-.17,1.22-.38,1.74-.64s.94-.56,1.26-.9c.32-.33.48-.66.48-.97,0-.69-.74-1.04-2.22-1.04-.42,0-.86.02-1.31.07-.46.05-.89.07-1.31.07-.91,0-1.57-.16-1.98-.48-.41-.32-.61-.83-.61-1.52s.18-1.24.54-1.65c.36-.41.81-.7,1.35-.9.54-.19,1.12-.31,1.74-.36.62-.05,1.2-.07,1.74-.07,1.87,0,3.51.1,4.9.29,1.39.19,2.56.6,3.5,1.24s1.64,1.53,2.11,2.7c.47,1.17.7,2.75.7,4.73s-.36,3.95-1.07,5.75-1.71,3.38-3,4.75c-1.28,1.36-2.81,2.44-4.57,3.22s-3.71,1.18-5.83,1.18-3.95-.44-5.55-1.31c-1.6-.87-2.95-2.09-4.03-3.65-1.09-1.56-1.91-3.44-2.46-5.62s-.83-4.58-.83-7.18Z"/><path class="cls-1" d="M271.9,64.08c0-2.7.31-5.1.92-7.22.62-2.11,1.5-3.9,2.65-5.35,1.15-1.46,2.55-2.57,4.2-3.35,1.65-.78,3.5-1.16,5.55-1.16,1.26,0,2.44.12,3.55.38,1.11.25,2.07.62,2.89,1.11s1.46,1.08,1.94,1.77c.48.69.72,1.48.72,2.36,0,.98-.56,1.76-1.68,2.35-1.12.59-2.61.88-4.46.88-1.09,0-2.13.08-3.13.25-1,.17-1.88.49-2.65.97s-1.38,1.14-1.83,1.99c-.46.85-.69,1.95-.69,3.31,0,.57.11,1.12.33,1.63.22.51.54.97.94,1.36.41.39.91.7,1.52.93.6.23,1.28.34,2.02.34.64,0,1.28-.08,1.92-.25s1.22-.38,1.74-.64.94-.56,1.26-.9c.32-.33.48-.66.48-.97,0-.69-.74-1.04-2.22-1.04-.42,0-.86.02-1.31.07-.46.05-.89.07-1.31.07-.91,0-1.57-.16-1.98-.48-.41-.32-.61-.83-.61-1.52s.18-1.24.54-1.65c.36-.41.81-.7,1.35-.9.54-.19,1.12-.31,1.74-.36.62-.05,1.2-.07,1.74-.07,1.88,0,3.51.1,4.9.29s2.56.6,3.5,1.24,1.64,1.53,2.11,2.7.7,2.75.7,4.73-.36,3.95-1.07,5.75c-.72,1.8-1.71,3.38-3,4.75-1.28,1.36-2.81,2.44-4.57,3.22-1.76.79-3.71,1.18-5.83,1.18s-3.95-.44-5.55-1.31c-1.6-.87-2.95-2.09-4.03-3.65-1.09-1.56-1.91-3.44-2.46-5.62-.56-2.18-.83-4.58-.83-7.18Z"/><path class="cls-1" d="M308.94,46.85c1.7,0,3.28.06,4.74.18s2.72.34,3.79.66c1.07.32,1.92.78,2.54,1.38.62.6.92,1.36.92,2.29s-.17,1.59-.5,2.13c-.33.54-.78.96-1.33,1.27-.55.31-1.18.54-1.89.68-.7.14-1.42.28-2.15.39-.73.12-1.44.25-2.13.39s-1.3.37-1.81.68c-.22.12-.44.29-.67.52-.22.23-.33.47-.33.73s.08.47.24.63c.16.16.35.28.57.36.22.08.46.14.72.16.26.02.49.04.68.04.64,0,1.33-.02,2.07-.07.74-.05,1.42.08,2.04.39.37.19.77.47,1.2.82.43.36.65.78.65,1.25,0,.5-.19.9-.57,1.18-.38.29-.86.52-1.44.7-.58.18-1.2.33-1.87.47-.67.13-1.29.27-1.87.43-.58.16-1.06.35-1.44.59-.38.24-.57.57-.57,1,0,.74.27,1.26.81,1.56.54.3,1.13.45,1.78.45.59,0,1.18-.05,1.76-.14.58-.09,1.15-.2,1.72-.3.57-.11,1.14-.2,1.72-.29.58-.08,1.17-.12,1.76-.12.96,0,1.75.15,2.35.45.6.3,1.08.71,1.42,1.24.34.53.58,1.14.7,1.84.12.71.18,1.47.18,2.31,0,1.98-.46,3.56-1.39,4.73-.92,1.17-2.11,2.06-3.55,2.69s-3.02,1.02-4.74,1.2c-1.71.18-3.37.27-4.98.27-1.41,0-2.76-.12-4.05-.36-1.29-.24-2.44-.64-3.44-1.22-1-.57-1.79-1.34-2.39-2.31-.59-.97-.89-2.19-.89-3.67,0-1.03.19-1.95.55-2.78.37-.82.77-1.63,1.2-2.42s.83-1.61,1.2-2.45.56-1.81.56-2.88c0-1.22-.12-2.3-.35-3.26-.24-.96-.49-1.85-.76-2.69-.27-.83-.52-1.67-.76-2.49-.23-.82-.35-1.7-.35-2.63,0-1.1.24-2.02.72-2.78s1.12-1.37,1.91-1.84,1.68-.82,2.68-1.04,2-.32,3.02-.32Z"/><path class="cls-1" d="M331.33,47.85c1.06,0,1.89.2,2.5.61.6.41,1.05,1.11,1.35,2.11.1.33.26.84.48,1.5.22.67.49,1.41.81,2.24.32.82.67,1.67,1.05,2.54.38.87.78,1.67,1.2,2.38.42.72.85,1.3,1.28,1.75.43.45.86.68,1.28.68.3,0,.55-.15.76-.45.21-.3.37-.65.48-1.06.11-.41.19-.81.24-1.22.05-.41.07-.7.07-.9,0-.64-.07-1.28-.22-1.92-.15-.63-.31-1.26-.48-1.88-.17-.62-.33-1.24-.48-1.84-.15-.61-.22-1.24-.22-1.88,0-1.43.42-2.49,1.26-3.17.84-.68,1.97-1.02,3.4-1.02.52,0,1.05.11,1.59.32.54.21,1.03.51,1.46.9s.78.81,1.05,1.29c.27.48.41.99.41,1.54,0,1.65-.1,3.27-.29,4.87-.2,1.6-.3,3.22-.3,4.87,0,1.05.12,2.08.37,3.08.25,1,.52,2,.83,3.01s.59,2,.83,2.99c.25.99.37,2.01.37,3.06s-.11,1.99-.33,2.88c-.22.89-.57,1.67-1.04,2.33-.47.66-1.07,1.17-1.81,1.54-.74.37-1.64.56-2.7.56s-1.94-.21-2.72-.64-1.43-.99-1.96-1.68-.93-1.48-1.2-2.36c-.27-.88-.41-1.78-.41-2.69,0-.62-.12-1.4-.37-2.33-.25-.93-.56-1.84-.94-2.74-.38-.89-.81-1.66-1.29-2.29-.48-.63-.94-.95-1.39-.95-.22,0-.39.07-.52.2-.12.13-.22.3-.3.5-.07.2-.12.41-.13.63-.01.21-.02.39-.02.54,0,.65.12,1.28.37,1.9.25.62.51,1.25.79,1.9s.55,1.33.8,2.06.37,1.53.37,2.42-.14,1.67-.43,2.44-.68,1.43-1.2,2.01-1.15,1.02-1.91,1.34c-.75.32-1.6.48-2.54.48-.89,0-1.71-.17-2.46-.5-.75-.33-1.41-.78-1.96-1.34-.56-.56-.99-1.22-1.31-1.97-.32-.75-.48-1.56-.48-2.42,0-1.43.14-2.84.41-4.23.27-1.38.56-2.76.87-4.14.31-1.37.6-2.75.87-4.14s.41-2.78.41-4.19c0-1.08-.12-2.12-.35-3.15-.24-1.03-.35-1.97-.35-2.83,0-1.17.41-2.05,1.24-2.65.83-.6,1.79-.9,2.9-.9Z"/><path class="cls-1" d="M361.44,46.96c2.61,0,4.96.53,7.05,1.59,2.08,1.06,3.86,2.47,5.33,4.21s2.59,3.73,3.37,5.96c.78,2.23,1.17,4.52,1.17,6.86,0,2.17-.35,4.24-1.04,6.2-.69,1.96-1.68,3.68-2.98,5.17-1.3,1.49-2.86,2.68-4.7,3.56-1.84.88-3.9,1.33-6.2,1.33-1.04,0-2.09-.11-3.15-.32-1.06-.21-2.02-.57-2.87-1.06-.85-.49-1.55-1.14-2.09-1.95-.54-.81-.81-1.82-.81-3.01,0-.76.07-1.56.22-2.4.15-.84.31-1.69.5-2.56.18-.87.35-1.73.5-2.58.15-.85.22-1.65.22-2.42,0-.98-.09-1.94-.26-2.88-.17-.94-.37-1.89-.59-2.83-.22-.94-.42-1.89-.59-2.85-.17-.95-.26-1.92-.26-2.9,0-2.34.58-4.11,1.74-5.32,1.16-1.21,2.97-1.81,5.44-1.81ZM365.14,56.27c-.54,0-.97.16-1.28.47-.31.31-.54.69-.7,1.15-.16.45-.26.94-.3,1.45-.04.51-.06.96-.06,1.34,0,.33,0,.78.02,1.33.01.55.09,1.09.22,1.63.13.54.34,1,.63,1.38.28.38.68.57,1.2.57s1.06-.14,1.55-.41c.49-.27.93-.64,1.29-1.09.37-.45.66-.97.87-1.56.21-.58.31-1.2.31-1.84,0-.48-.1-.97-.29-1.49-.2-.51-.46-.99-.8-1.42s-.73-.79-1.18-1.07c-.46-.29-.96-.43-1.5-.43Z"/><path class="cls-1" d="M388.16,46.85c1.7,0,3.28.06,4.74.18s2.72.34,3.79.66c1.07.32,1.92.78,2.53,1.38.62.6.92,1.36.92,2.29s-.17,1.59-.5,2.13c-.33.54-.78.96-1.33,1.27-.55.31-1.18.54-1.89.68-.7.14-1.42.28-2.15.39s-1.44.25-2.13.39-1.29.37-1.81.68c-.22.12-.44.29-.67.52-.22.23-.33.47-.33.73s.08.47.24.63c.16.16.35.28.57.36.22.08.46.14.72.16.26.02.49.04.68.04.64,0,1.33-.02,2.07-.07.74-.05,1.42.08,2.04.39.37.19.77.47,1.2.82.43.36.65.78.65,1.25,0,.5-.19.9-.57,1.18-.38.29-.86.52-1.44.7-.58.18-1.2.33-1.87.47-.67.13-1.29.27-1.87.43-.58.16-1.06.35-1.44.59-.38.24-.57.57-.57,1,0,.74.27,1.26.81,1.56.54.3,1.13.45,1.78.45.59,0,1.18-.05,1.76-.14.58-.09,1.15-.2,1.72-.3s1.14-.2,1.72-.29c.58-.08,1.17-.12,1.76-.12.96,0,1.75.15,2.35.45.6.3,1.08.71,1.43,1.24.34.53.58,1.14.7,1.84.12.71.18,1.47.18,2.31,0,1.98-.46,3.56-1.39,4.73-.93,1.17-2.11,2.06-3.55,2.69-1.44.62-3.02,1.02-4.74,1.2-1.71.18-3.37.27-4.98.27-1.41,0-2.76-.12-4.05-.36s-2.44-.64-3.44-1.22c-1-.57-1.79-1.34-2.39-2.31-.59-.97-.89-2.19-.89-3.67,0-1.03.18-1.95.55-2.78.37-.82.77-1.63,1.2-2.42s.83-1.61,1.2-2.45c.37-.85.56-1.81.56-2.88,0-1.22-.12-2.3-.35-3.26-.24-.96-.49-1.85-.76-2.69-.27-.83-.52-1.67-.76-2.49-.24-.82-.35-1.7-.35-2.63,0-1.1.24-2.02.72-2.78.48-.75,1.12-1.37,1.91-1.84.79-.48,1.68-.82,2.68-1.04,1-.21,2-.32,3.02-.32Z"/><path class="cls-1" d="M41.17,90.51c.62,0,1.23.07,1.83.2.6.13,1.15.35,1.63.64.48.3.87.69,1.17,1.16s.44,1.06.44,1.75c0,1.17-.13,2.35-.39,3.53-.26,1.18-.39,2.37-.39,3.56,0,.43.02.91.06,1.43s.13,1.01.28,1.45c.15.44.38.82.7,1.13.32.31.76.47,1.33.47.64,0,1.13-.21,1.48-.63.34-.42.61-.94.79-1.58.19-.63.34-1.32.46-2.06.12-.74.28-1.43.46-2.06s.46-1.16.81-1.58c.36-.42.87-.63,1.54-.63s1.15.2,1.52.59c.37.39.65.89.85,1.49.2.6.36,1.24.48,1.92.12.68.26,1.32.41,1.92.15.6.36,1.09.63,1.49.27.39.65.59,1.15.59s.94-.18,1.28-.54c.33-.36.6-.79.8-1.31.2-.51.33-1.04.41-1.59.07-.55.11-1,.11-1.36,0-1.03-.09-2.04-.28-3.04s-.28-2.02-.28-3.04c0-1.72.45-2.94,1.35-3.65.9-.72,2.21-1.07,3.94-1.07.52,0,1.1.05,1.74.14.64.1,1.25.26,1.83.5.58.24,1.06.57,1.44.98.38.42.57.96.57,1.63,0,.33-.05.72-.15,1.16-.1.44-.22.9-.37,1.36-.15.46-.29.92-.44,1.36-.15.44-.27.83-.37,1.16-.35,1.15-.63,2.3-.85,3.47-.22,1.17-.33,2.36-.33,3.58,0,.72.04,1.4.11,2.04.07.65.16,1.28.26,1.92.1.63.18,1.27.26,1.9.07.63.11,1.31.11,2.02,0,1.17-.15,2.35-.44,3.53-.3,1.18-.77,2.24-1.41,3.19-.64.94-1.46,1.71-2.46,2.31-1,.6-2.19.9-3.57.9-.62,0-1.3-.08-2.05-.25-.75-.17-1.48-.42-2.18-.75s-1.33-.74-1.89-1.22-.94-1.03-1.17-1.65c-.22-.64-.36-1.37-.41-2.17-.05-.8-.09-1.55-.13-2.26-.04-.7-.12-1.29-.26-1.75-.14-.47-.41-.7-.83-.7-.4,0-.65.19-.76.57s-.16.85-.15,1.4c.01.55.05,1.13.11,1.74.06.61.07,1.14.02,1.59-.12.96-.43,1.8-.93,2.52-.49.73-1.11,1.34-1.85,1.83-.74.49-1.55.86-2.44,1.11-.89.25-1.8.38-2.74.38-1.13,0-2.17-.21-3.11-.64-.94-.43-1.74-1.01-2.41-1.74-.67-.73-1.18-1.57-1.55-2.53-.37-.95-.56-1.96-.56-3.01,0-.86.09-1.67.28-2.44.19-.76.38-1.52.59-2.27.21-.75.41-1.51.59-2.27.18-.76.28-1.59.28-2.47,0-.98-.12-1.93-.35-2.87-.24-.93-.5-1.85-.8-2.76-.29-.91-.56-1.8-.79-2.69-.23-.88-.35-1.77-.35-2.65,0-.76.14-1.43.43-1.99s.67-1.02,1.15-1.38c.48-.36,1.04-.62,1.68-.79s1.33-.25,2.07-.25Z"/><path class="cls-1" d="M80.58,89.83c1.7,0,3.28.06,4.74.18s2.72.34,3.79.66c1.07.32,1.92.78,2.54,1.38.62.6.92,1.36.92,2.29s-.17,1.59-.5,2.13c-.33.54-.78.96-1.33,1.27-.55.31-1.18.54-1.89.68-.7.14-1.42.28-2.15.39-.73.12-1.44.25-2.13.39s-1.3.37-1.81.68c-.22.12-.44.29-.67.52-.22.23-.33.47-.33.73s.08.47.24.63c.16.16.35.28.57.36.22.08.46.14.72.16.26.02.49.04.68.04.64,0,1.33-.02,2.07-.07.74-.05,1.42.08,2.04.39.37.19.77.47,1.2.82.43.36.65.78.65,1.25,0,.5-.19.9-.57,1.18-.38.29-.86.52-1.44.7-.58.18-1.2.33-1.87.47-.67.13-1.29.27-1.87.43-.58.16-1.06.35-1.44.59-.38.24-.57.57-.57,1,0,.74.27,1.26.81,1.56.54.3,1.13.45,1.78.45.59,0,1.18-.05,1.76-.14.58-.09,1.15-.2,1.72-.3.57-.11,1.14-.2,1.72-.29.58-.08,1.17-.12,1.76-.12.96,0,1.75.15,2.35.45.6.3,1.08.71,1.42,1.24.34.53.58,1.14.7,1.84.12.71.18,1.47.18,2.31,0,1.98-.46,3.56-1.39,4.73-.92,1.17-2.11,2.06-3.55,2.69s-3.02,1.02-4.74,1.2c-1.71.18-3.37.27-4.98.27-1.41,0-2.76-.12-4.05-.36-1.29-.24-2.44-.64-3.44-1.22-1-.57-1.79-1.34-2.39-2.31-.59-.97-.89-2.19-.89-3.67,0-1.03.19-1.95.55-2.78.37-.82.77-1.63,1.2-2.42s.83-1.61,1.2-2.45.56-1.81.56-2.88c0-1.22-.12-2.3-.35-3.26-.24-.96-.49-1.85-.76-2.69-.27-.83-.52-1.67-.76-2.49-.23-.82-.35-1.7-.35-2.63,0-1.1.24-2.02.72-2.78s1.12-1.37,1.91-1.84,1.68-.82,2.68-1.04,2-.32,3.02-.32Z"/><path class="cls-1" d="M106.99,90.47c1.95,0,3.77.16,5.48.47,1.7.31,3.19.73,4.46,1.27,1.27.54,2.27,1.18,3,1.92.73.74,1.09,1.53,1.09,2.36,0,.98-.2,1.83-.59,2.56-.39.73-.89,1.36-1.48,1.88-.59.53-1.24.97-1.94,1.34s-1.35.69-1.94.95-1.09.5-1.48.72-.59.43-.59.64.27.39.8.54c.53.14,1.18.3,1.96.48.78.18,1.63.4,2.55.66s1.78.63,2.55,1.11c.78.48,1.43,1.09,1.96,1.83.53.74.79,1.67.79,2.79,0,1.96-.46,3.8-1.39,5.52-.93,1.72-2.2,3.08-3.83,4.08-.72.45-1.56.87-2.54,1.25s-2.01.72-3.11,1c-1.1.29-2.21.51-3.33.66-1.12.15-2.2.23-3.24.23-2.62,0-4.69-.5-6.24-1.49-1.54-.99-2.34-2.33-2.39-4.03v-.11c0-.72.12-1.45.37-2.2.25-.75.52-1.53.83-2.33s.59-1.64.83-2.51c.25-.87.37-1.79.37-2.74s-.12-1.9-.35-2.92-.5-2.05-.8-3.12c-.3-1.06-.56-2.13-.8-3.21s-.35-2.14-.35-3.19c0-2.27.73-3.91,2.2-4.92,1.47-1.01,3.84-1.52,7.12-1.52ZM108.25,102.54c.37,0,.73-.07,1.07-.21.34-.14.65-.34.92-.59.27-.25.49-.53.65-.84.16-.31.24-.63.24-.97s-.08-.66-.24-.97c-.16-.31-.38-.59-.65-.84-.27-.25-.58-.45-.92-.59-.35-.14-.7-.21-1.07-.21-.67,0-1.2.24-1.59.72-.4.48-.59,1.11-.59,1.9s.2,1.42.59,1.9c.39.48.92.72,1.59.72ZM108.62,113.64c.34,0,.7-.07,1.05-.21s.68-.33.96-.56c.28-.23.51-.48.69-.75.17-.27.26-.55.26-.84s-.11-.6-.31-.93c-.21-.33-.47-.64-.78-.91-.31-.27-.65-.5-1.04-.68-.38-.18-.75-.27-1.09-.27-.57,0-1.02.23-1.35.7-.33.47-.5,1.07-.5,1.81,0,.79.19,1.43.57,1.92.38.49.89.73,1.54.73Z"/></svg>